<?xml version="1.0" standalone="no"?>
<!DOCTYPE svg PUBLIC "-//W3C//DTD SVG 1.1//EN" "http://www.w3.org/Graphics/SVG/1.1/DTD/svg11.dtd">
<!--Generator: Xara Designer (www.xara.com), SVG filter version: 4.0.0.1-->
<svg stroke-width="0.501" stroke-linejoin="bevel" fill-rule="evenodd" xmlns:xlink="http://www.w3.org/1999/xlink" xmlns="http://www.w3.org/2000/svg" version="1.1" overflow="visible" width="300pt" height="120pt" viewBox="0 0 300 120">
 <defs>
  <marker id="DefaultArrow2" markerUnits="strokeWidth" viewBox="0 0 1 1" markerWidth="1" markerHeight="1" overflow="visible" orient="auto">
   <!-- REF_ARROW_STRAIGHT (-2) -->
   <g transform="scale(0.0092592592)">
    <!-- 1/108 -->
    <path d="M -9 54 L -9 -54 L 117 0 z"/>
   </g>
  </marker>
  <marker id="DefaultArrow3" markerUnits="strokeWidth" viewBox="0 0 1 1" markerWidth="1" markerHeight="1" overflow="visible" orient="auto">
   <!-- REF_ARROW_ANGLED -->
   <g transform="scale(0.0092592592)">
    <path d="M -27 54 L -9 0 L -27 -54 L 135 0 z"/>
   </g>
  </marker>
  <marker id="DefaultArrow4" markerUnits="strokeWidth" viewBox="0 0 1 1" markerWidth="1" markerHeight="1" overflow="visible" orient="auto">
   <!-- REF_ARROW_ROUNDED -->
   <g transform="scale(0.0092592592)">
    <path d="M -9,0 L -9,-45 C -9,-51.708 2.808,-56.580 9,-54 L 117,-9 C 120.916,-7.369 126.000,-4.242 126,0 C 126,4.242 120.916,7.369 117,9 L 9,54 C 2.808,56.580 -9,51.708 -9,45 z"/>
   </g>
  </marker>
  <marker id="DefaultArrow5" markerUnits="strokeWidth" viewBox="0 0 1 1" markerWidth="1" markerHeight="1" overflow="visible" orient="auto">
   <!-- REF_ARROW_SPOT -->
   <g transform="scale(0.0092592592)">
    <path d="M -54, 0 C -54,29.807 -29.807,54 0,54 C 29.807,54 54,29.807 54,0 C 54,-29.807 29.807,-54 0,-54 C -29.807,-54 -54,-29.807 -54,0 z"/>
   </g>
  </marker>
  <marker id="DefaultArrow6" markerUnits="strokeWidth" viewBox="0 0 1 1" markerWidth="1" markerHeight="1" overflow="visible" orient="auto">
   <!-- REF_ARROW_DIAMOND -->
   <g transform="scale(0.0092592592)">
    <path d="M -63,0 L 0,63 L 63,0 L 0,-63 z"/>
   </g>
  </marker>
  <marker id="DefaultArrow7" markerUnits="strokeWidth" viewBox="0 0 1 1" markerWidth="1" markerHeight="1" overflow="visible" orient="auto">
   <!-- REF_ARROW_FEATHER -->
   <g transform="scale(0.0092592592)">
    <path d="M 18,-54 L 108,-54 L 63,0 L 108,54 L 18, 54 L -36,0 z"/>
   </g>
  </marker>
  <marker id="DefaultArrow8" markerUnits="strokeWidth" viewBox="0 0 1 1" markerWidth="1" markerHeight="1" overflow="visible" orient="auto">
   <!-- REF_ARROW_FEATHER2 -->
   <g transform="scale(0.0092592592)">
    <path d="M -36,0 L 18,-54 L 54,-54 L 18,-18 L 27,-18 L 63,-54 L 99,-54 L 63,-18 L 72,-18 L 108,-54 L 144,-54 L 90,0 L 144,54 L 108,54 L 72,18 L 63,18 L 99,54 L 63,54 L 27,18 L 18,18 L 54,54 L 18,54 z"/>
   </g>
  </marker>
  <marker id="DefaultArrow9" markerUnits="strokeWidth" viewBox="0 0 1 1" markerWidth="1" markerHeight="1" overflow="visible" orient="auto">
   <!-- REF_ARROW_HOLLOWDIAMOND -->
   <g transform="scale(0.0092592592)">
    <path d="M 0,45 L -45,0 L 0, -45 L 45, 0 z M 0, 63 L-63, 0 L 0, -63 L 63, 0 z"/>
   </g>
  </marker>
  <filter id="StainedFilter">
   <feBlend mode="multiply" in2="BackgroundImage" in="SourceGraphic" result="blend"/>
   <feComposite in="blend" in2="SourceAlpha" operator="in" result="comp"/>
  </filter>
  <filter id="BleachFilter">
   <feBlend mode="screen" in2="BackgroundImage" in="SourceGraphic" result="blend"/>
   <feComposite in="blend" in2="SourceAlpha" operator="in" result="comp"/>
  </filter>
  <filter id="InvertTransparencyBitmapFilter">
   <feComponentTransfer>
    <feFuncR type="gamma" amplitude="1.055" exponent=".416666666" offset="-0.055"/>
    <feFuncG type="gamma" amplitude="1.055" exponent=".416666666" offset="-0.055"/>
    <feFuncB type="gamma" amplitude="1.055" exponent=".416666666" offset="-0.055"/>
   </feComponentTransfer>
   <feComponentTransfer>
    <feFuncR type="linear" slope="-1" intercept="1"/>
    <feFuncG type="linear" slope="-1" intercept="1"/>
    <feFuncB type="linear" slope="-1" intercept="1"/>
    <feFuncA type="linear" slope="1" intercept="0"/>
   </feComponentTransfer>
   <feComponentTransfer>
    <feFuncR type="gamma" amplitude="1" exponent="2.4" offset="0"/>
    <feFuncG type="gamma" amplitude="1" exponent="2.4" offset="0"/>
    <feFuncB type="gamma" amplitude="1" exponent="2.4" offset="0"/>
   </feComponentTransfer>
  </filter>
 </defs>
 <g id="Document" fill="none" stroke="black" font-family="Times New Roman" font-size="16" transform="scale(1 -1)">
  <g id="Spread" transform="translate(0 -120)">
   <g id="Layer 1">
    <g id="Group" fill="#dc2134">
     <g id="Group_1" fill-rule="nonzero" stroke-linejoin="round" stroke-linecap="round" stroke="none" stroke-width="1.126" stroke-miterlimit="79.8403193612775">
      <g id="Group_2">
       <path d="M 74.893,43.953 C 74.874,45.968 74.387,47.672 73.443,49.065 C 72.497,50.455 71.179,51.504 69.506,52.216 C 67.837,52.934 65.908,53.296 63.725,53.296 C 62.027,53.296 60.47,53.112 59.056,52.768 C 57.637,52.43 56.34,51.947 55.156,51.349 C 53.984,50.749 52.893,50.061 51.908,49.286 L 53.89,46.15 C 54.794,46.835 55.732,47.416 56.691,47.906 C 57.641,48.401 58.668,48.778 59.779,49.045 C 60.88,49.308 62.106,49.446 63.453,49.446 C 65.05,49.441 66.383,49.189 67.467,48.692 C 68.538,48.202 69.355,47.516 69.891,46.629 C 70.443,45.745 70.717,44.731 70.717,43.566 C 70.728,42.558 70.597,41.658 70.329,40.842 C 70.062,40.036 69.578,39.251 68.877,38.494 C 68.166,37.73 67.174,36.935 65.886,36.08 C 64.596,35.229 62.95,34.259 60.926,33.175 C 58.826,32.047 56.951,30.868 55.311,29.653 C 53.668,28.431 52.238,27.091 51.016,25.628 C 49.794,24.163 48.768,22.499 47.937,20.631 C 47.112,18.767 46.45,16.623 45.971,14.206 L 71.043,14.206 L 71.702,18.27 L 51.746,18.27 C 51.985,19.291 52.355,20.295 52.863,21.292 C 53.368,22.291 54.071,23.283 54.959,24.286 C 55.85,25.284 56.993,26.292 58.377,27.31 C 59.767,28.33 61.458,29.366 63.453,30.422 C 65.713,31.626 67.586,32.748 69.07,33.797 C 70.559,34.846 71.722,35.892 72.578,36.922 C 73.435,37.951 74.03,39.033 74.385,40.171 C 74.731,41.315 74.907,42.565 74.893,43.953 Z" marker-start="none" marker-end="none"/>
       <path d="M 110.683,52.689 L 105.74,52.689 L 99.574,44.231 C 98.672,43.014 97.82,41.862 97.029,40.773 C 96.234,39.687 95.511,38.673 94.85,37.73 C 94.497,38.682 94.132,39.639 93.744,40.609 C 93.357,41.571 92.919,42.648 92.43,43.84 L 88.915,52.689 L 84.4,52.689 L 92.049,34.386 L 76.645,14.206 L 81.597,14.206 L 89.071,24.321 C 90.008,25.53 90.869,26.659 91.65,27.733 C 92.445,28.803 93.173,29.824 93.864,30.811 C 94.16,29.971 94.497,29.06 94.878,28.085 C 95.262,27.115 95.711,25.985 96.232,24.704 L 100.404,14.206 L 104.913,14.206 L 96.611,34.162 L 110.683,52.689 Z" marker-start="none" marker-end="none"/>
       <path d="M 158.294,52.689 L 131.573,52.689 L 130.857,48.789 L 142.128,48.789 L 136.025,14.206 L 140.311,14.206 L 146.418,48.789 L 157.578,48.789 L 158.294,52.689 Z" marker-start="none" marker-end="none"/>
       <path d="M 189.085,52.689 L 166.099,52.689 L 159.286,14.206 L 183.15,14.206 L 183.861,18.112 L 164.286,18.112 L 166.87,32.789 L 177.868,32.789 L 178.525,36.694 L 167.531,36.694 L 169.673,48.789 L 188.428,48.789 L 189.085,52.689 Z" marker-start="none" marker-end="none"/>
       <path d="M 221.817,46.538 C 221.036,47.95 220.105,49.163 219.032,50.17 C 217.961,51.173 216.691,51.947 215.225,52.483 C 213.765,53.022 212.054,53.296 210.103,53.296 C 207.962,53.284 205.94,52.864 204.039,52.039 C 202.134,51.213 200.402,50.061 198.838,48.567 C 197.27,47.083 195.91,45.339 194.772,43.344 C 193.629,41.349 192.746,39.177 192.128,36.814 C 191.511,34.46 191.196,31.994 191.182,29.43 C 191.207,26.02 191.791,23.134 192.928,20.786 C 194.075,18.432 195.667,16.645 197.713,15.43 C 199.762,14.216 202.141,13.605 204.874,13.601 C 206.637,13.614 208.273,13.866 209.799,14.385 C 211.317,14.913 212.734,15.636 214.048,16.564 C 215.361,17.497 216.572,18.572 217.687,19.809 L 215.105,22.566 C 213.668,20.979 212.158,19.746 210.559,18.859 C 208.975,17.968 207.16,17.523 205.156,17.504 C 203.233,17.504 201.55,17.998 200.104,18.957 C 198.654,19.915 197.525,21.298 196.716,23.107 C 195.904,24.919 195.49,27.1 195.477,29.653 C 195.477,31.721 195.703,33.718 196.156,35.653 C 196.605,37.585 197.249,39.379 198.085,41.039 C 198.917,42.705 199.907,44.159 201.072,45.408 C 202.224,46.658 203.512,47.626 204.931,48.327 C 206.352,49.03 207.874,49.382 209.501,49.393 C 210.97,49.387 212.227,49.189 213.276,48.789 C 214.319,48.386 215.219,47.799 215.99,47.035 C 216.748,46.262 217.442,45.331 218.073,44.231 L 221.817,46.538 Z" marker-start="none" marker-end="none"/>
       <path d="M 258.494,52.689 L 254.198,52.689 L 251.287,36.249 L 232.375,36.249 L 235.285,52.689 L 230.997,52.689 L 224.184,14.206 L 228.466,14.206 L 231.711,32.345 L 250.626,32.345 L 247.385,14.206 L 251.673,14.206 L 258.494,52.689 Z" marker-start="none" marker-end="none"/>
      </g>
     </g>
     <g id="Group_3" stroke="#dc2134" stroke-linejoin="round" stroke-linecap="round" stroke-width="2.836" stroke-miterlimit="79.8403193612775">
      <path d="M 265.655,107.582 L 282.097,107.582" fill="none"/>
      <path d="M 282.097,107.582 L 282.097,15.62" fill="none"/>
      <path d="M 282.08,15.789 L 265.473,15.789" fill="none"/>
     </g>
     <g id="Group_4" stroke="#dc2134" stroke-linejoin="round" stroke-linecap="round" stroke-width="2.836" stroke-miterlimit="79.8403193612775">
      <path d="M 38.23,107.582 L 21.79,107.582" fill="none"/>
      <path d="M 21.79,107.582 L 21.79,15.62" fill="none"/>
      <path d="M 21.803,15.789 L 38.414,15.789" fill="none"/>
     </g>
     <g id="Group_5" fill-rule="nonzero" stroke="none">
      <path d="M 188.572,108.834 L 188.572,84.92 L 167.249,108.834 L 156.227,108.834 L 156.227,64.221 L 168.499,64.221 L 168.499,88.131 L 189.518,64.221 L 200.833,64.221 L 200.833,108.834 L 188.572,108.834 Z" marker-start="none" marker-end="none"/>
      <path d="M 144.953,84.508 L 144.953,89.377 L 144.953,93.768 L 144.953,93.768 C 144.953,93.776 144.953,93.776 144.953,93.776 L 144.953,109.381 L 132.952,109.381 L 132.683,109.381 L 132.683,93.768 L 132.683,84.508 C 132.683,83.418 132.517,82.434 132.171,81.537 C 131.735,80.383 131.012,79.395 130.005,78.526 C 128.124,76.909 125.38,75.944 122.666,75.931 L 122.666,75.941 L 122.666,75.941 C 122.658,75.941 122.658,75.941 122.655,75.941 C 122.655,75.941 122.651,75.941 122.651,75.941 L 122.651,75.941 L 122.644,75.931 C 119.936,75.944 117.189,76.909 115.308,78.526 C 114.299,79.395 113.581,80.383 113.136,81.537 C 112.794,82.434 112.63,83.418 112.63,84.508 L 112.63,93.768 L 112.63,109.381 L 112.363,109.381 L 100.364,109.381 L 100.364,93.776 C 100.364,93.776 100.364,93.776 100.364,93.768 L 100.364,93.768 L 100.364,89.377 L 100.364,84.508 L 100.364,81.537 L 100.364,81.537 C 100.364,71.667 111.009,63.833 122.09,63.671 C 122.202,63.671 122.314,63.667 122.43,63.667 C 122.476,63.667 122.522,63.667 122.568,63.667 C 122.59,63.667 122.62,63.667 122.651,63.667 L 122.651,63.667 C 122.651,63.667 122.655,63.667 122.655,63.667 C 122.658,63.667 122.658,63.667 122.666,63.667 C 122.671,63.667 122.671,63.667 122.677,63.667 L 122.671,63.667 C 122.699,63.667 122.721,63.667 122.752,63.667 C 122.787,63.667 122.837,63.667 122.879,63.667 C 122.993,63.667 123.109,63.671 123.231,63.671 C 134.304,63.833 144.953,71.439 144.953,81.537 L 144.953,81.537 L 144.953,84.508 Z" marker-start="none" marker-end="none"/>
      <path d="M 77.287,80.409 C 75.303,77.106 71.771,74.892 67.73,74.838 C 67.678,74.829 67.625,74.829 67.575,74.829 C 61.281,74.829 56.178,80.065 56.178,86.527 C 56.178,92.983 61.281,98.22 67.575,98.22 C 67.625,98.22 67.678,98.217 67.73,98.217 C 71.771,98.165 75.303,95.946 77.287,92.648 L 90.654,92.648 C 90.654,102.705 80.051,110.306 69.007,110.501 C 68.978,110.501 68.948,110.501 68.921,110.505 C 68.807,110.505 68.691,110.505 68.575,110.505 C 68.534,110.505 68.486,110.505 68.442,110.505 C 68.42,110.505 68.394,110.505 68.372,110.505 L 68.378,110.505 C 68.372,110.505 68.363,110.505 68.363,110.505 C 68.356,110.505 68.356,110.505 68.356,110.505 L 68.345,110.505 L 68.345,110.505 C 68.323,110.505 68.293,110.505 68.266,110.505 C 68.22,110.505 68.175,110.505 68.129,110.505 C 68.013,110.505 67.899,110.505 67.785,110.505 L 66.887,110.505 C 58.108,110.505 50.436,105.781 46.256,98.739 C 44.127,95.169 42.909,90.988 42.909,86.536 L 42.909,86.536 L 42.909,86.527 L 42.909,86.521 L 42.909,86.521 C 42.909,82.06 44.127,77.882 46.256,74.308 C 50.436,67.265 58.108,62.552 66.887,62.552 L 67.785,62.552 C 67.899,62.552 68.013,62.552 68.129,62.552 C 68.175,62.552 68.22,62.552 68.266,62.552 C 68.293,62.552 68.323,62.552 68.345,62.552 L 68.345,62.552 C 68.352,62.552 68.352,62.552 68.356,62.552 C 68.356,62.552 68.356,62.552 68.363,62.552 C 68.363,62.552 68.372,62.552 68.378,62.552 L 68.372,62.552 C 68.394,62.552 68.42,62.552 68.442,62.552 C 68.486,62.552 68.534,62.552 68.575,62.552 C 68.691,62.552 68.807,62.552 68.921,62.552 C 68.948,62.552 68.978,62.555 69.007,62.555 C 80.051,62.743 90.654,70.342 90.654,80.409 L 77.287,80.409 Z" marker-start="none" marker-end="none"/>
      <path d="M 244.443,108.834 L 234.407,88.361 L 224.371,108.834 L 212.103,108.834 L 228.278,75.854 L 228.278,64.221 L 240.543,64.221 L 240.543,75.854 L 256.714,108.834 L 244.443,108.834 Z" marker-start="none" marker-end="none"/>
     </g>
    </g>
   </g>
   <g id="Optional Content Layer from PDF"/>
  </g>
 </g>
</svg>
