<?xml version="1.0" standalone="no"?>
<!DOCTYPE svg PUBLIC "-//W3C//DTD SVG 1.1//EN" "http://www.w3.org/Graphics/SVG/1.1/DTD/svg11.dtd">
<!--Generator: Xara Designer (www.xara.com), SVG filter version: 4.0.0.1-->
<svg stroke-width="0.501" stroke-linejoin="bevel" fill-rule="evenodd" xmlns:xlink="http://www.w3.org/1999/xlink" xmlns="http://www.w3.org/2000/svg" version="1.1" overflow="visible" width="300pt" height="120pt" viewBox="0 0 300 120">
 <defs>
  <marker id="DefaultArrow2" markerUnits="strokeWidth" viewBox="0 0 1 1" markerWidth="1" markerHeight="1" overflow="visible" orient="auto">
   <!-- REF_ARROW_STRAIGHT (-2) -->
   <g transform="scale(0.0092592592)">
    <!-- 1/108 -->
    <path d="M -9 54 L -9 -54 L 117 0 z"/>
   </g>
  </marker>
  <marker id="DefaultArrow3" markerUnits="strokeWidth" viewBox="0 0 1 1" markerWidth="1" markerHeight="1" overflow="visible" orient="auto">
   <!-- REF_ARROW_ANGLED -->
   <g transform="scale(0.0092592592)">
    <path d="M -27 54 L -9 0 L -27 -54 L 135 0 z"/>
   </g>
  </marker>
  <marker id="DefaultArrow4" markerUnits="strokeWidth" viewBox="0 0 1 1" markerWidth="1" markerHeight="1" overflow="visible" orient="auto">
   <!-- REF_ARROW_ROUNDED -->
   <g transform="scale(0.0092592592)">
    <path d="M -9,0 L -9,-45 C -9,-51.708 2.808,-56.580 9,-54 L 117,-9 C 120.916,-7.369 126.000,-4.242 126,0 C 126,4.242 120.916,7.369 117,9 L 9,54 C 2.808,56.580 -9,51.708 -9,45 z"/>
   </g>
  </marker>
  <marker id="DefaultArrow5" markerUnits="strokeWidth" viewBox="0 0 1 1" markerWidth="1" markerHeight="1" overflow="visible" orient="auto">
   <!-- REF_ARROW_SPOT -->
   <g transform="scale(0.0092592592)">
    <path d="M -54, 0 C -54,29.807 -29.807,54 0,54 C 29.807,54 54,29.807 54,0 C 54,-29.807 29.807,-54 0,-54 C -29.807,-54 -54,-29.807 -54,0 z"/>
   </g>
  </marker>
  <marker id="DefaultArrow6" markerUnits="strokeWidth" viewBox="0 0 1 1" markerWidth="1" markerHeight="1" overflow="visible" orient="auto">
   <!-- REF_ARROW_DIAMOND -->
   <g transform="scale(0.0092592592)">
    <path d="M -63,0 L 0,63 L 63,0 L 0,-63 z"/>
   </g>
  </marker>
  <marker id="DefaultArrow7" markerUnits="strokeWidth" viewBox="0 0 1 1" markerWidth="1" markerHeight="1" overflow="visible" orient="auto">
   <!-- REF_ARROW_FEATHER -->
   <g transform="scale(0.0092592592)">
    <path d="M 18,-54 L 108,-54 L 63,0 L 108,54 L 18, 54 L -36,0 z"/>
   </g>
  </marker>
  <marker id="DefaultArrow8" markerUnits="strokeWidth" viewBox="0 0 1 1" markerWidth="1" markerHeight="1" overflow="visible" orient="auto">
   <!-- REF_ARROW_FEATHER2 -->
   <g transform="scale(0.0092592592)">
    <path d="M -36,0 L 18,-54 L 54,-54 L 18,-18 L 27,-18 L 63,-54 L 99,-54 L 63,-18 L 72,-18 L 108,-54 L 144,-54 L 90,0 L 144,54 L 108,54 L 72,18 L 63,18 L 99,54 L 63,54 L 27,18 L 18,18 L 54,54 L 18,54 z"/>
   </g>
  </marker>
  <marker id="DefaultArrow9" markerUnits="strokeWidth" viewBox="0 0 1 1" markerWidth="1" markerHeight="1" overflow="visible" orient="auto">
   <!-- REF_ARROW_HOLLOWDIAMOND -->
   <g transform="scale(0.0092592592)">
    <path d="M 0,45 L -45,0 L 0, -45 L 45, 0 z M 0, 63 L-63, 0 L 0, -63 L 63, 0 z"/>
   </g>
  </marker>
  <filter id="StainedFilter">
   <feBlend mode="multiply" in2="BackgroundImage" in="SourceGraphic" result="blend"/>
   <feComposite in="blend" in2="SourceAlpha" operator="in" result="comp"/>
  </filter>
  <filter id="BleachFilter">
   <feBlend mode="screen" in2="BackgroundImage" in="SourceGraphic" result="blend"/>
   <feComposite in="blend" in2="SourceAlpha" operator="in" result="comp"/>
  </filter>
  <filter id="InvertTransparencyBitmapFilter">
   <feComponentTransfer>
    <feFuncR type="gamma" amplitude="1.055" exponent=".416666666" offset="-0.055"/>
    <feFuncG type="gamma" amplitude="1.055" exponent=".416666666" offset="-0.055"/>
    <feFuncB type="gamma" amplitude="1.055" exponent=".416666666" offset="-0.055"/>
   </feComponentTransfer>
   <feComponentTransfer>
    <feFuncR type="linear" slope="-1" intercept="1"/>
    <feFuncG type="linear" slope="-1" intercept="1"/>
    <feFuncB type="linear" slope="-1" intercept="1"/>
    <feFuncA type="linear" slope="1" intercept="0"/>
   </feComponentTransfer>
   <feComponentTransfer>
    <feFuncR type="gamma" amplitude="1" exponent="2.4" offset="0"/>
    <feFuncG type="gamma" amplitude="1" exponent="2.4" offset="0"/>
    <feFuncB type="gamma" amplitude="1" exponent="2.4" offset="0"/>
   </feComponentTransfer>
  </filter>
 </defs>
 <g id="Document" fill="none" stroke="black" font-family="Times New Roman" font-size="16" transform="scale(1 -1)">
  <g id="Spread" transform="translate(0 -120)">
   <g id="Layer 1">
    <g id="Group" fill-rule="nonzero" stroke="none">
     <path d="M 125.261,43.789 C 124.113,42.338 125.214,40.806 125.214,40.806 C 125.129,42.113 125.806,42.132 125.806,42.132 C 125.455,39.816 127.448,38.992 127.448,38.992 C 126.668,39.864 127.138,41.128 127.138,41.128 C 128.145,40.805 128.168,39.595 127.675,38.256 C 127.176,36.907 127.684,36.36 127.684,36.36 C 127.377,37.373 128.633,37.922 128.633,37.922 C 127.808,34.148 131.189,32.074 131.189,32.074 C 129.695,35.111 131.769,36.927 131.769,36.927 C 132.371,35.904 132.074,34.556 132.074,34.556 C 134.048,35.992 134.333,39.229 134.333,39.229 C 134.52,38.4 135.618,38.871 135.618,38.871 C 134.586,40.109 135.381,41.579 135.381,41.579 C 136.439,41.304 136.187,39.57 136.187,39.57 C 136.995,40.796 135.692,43.568 135.692,43.568 L 125.261,43.789 Z" fill="#e20011" marker-start="none" marker-end="none"/>
     <path d="M 140.768,57.155 C 140.815,57.557 140.845,57.963 140.879,58.383 L 120.432,58.827 C 120.443,58.404 120.46,57.994 120.483,57.594 L 140.768,57.155 Z" fill="#e20011" marker-start="none" marker-end="none"/>
     <path d="M 131.385,92.448 C 131.385,92.448 128.651,89.143 125.914,83.791 L 136.483,83.558 C 133.975,89.02 131.385,92.448 131.385,92.448 L 131.385,92.448 Z" fill="#e20011" marker-start="none" marker-end="none"/>
     <path d="M 131.098,79.537 C 133.545,79.484 135.483,77.457 135.433,75.018 C 135.377,72.567 133.358,70.635 130.914,70.682 C 128.476,70.738 126.535,72.766 126.582,75.204 C 126.637,77.647 128.662,79.59 131.098,79.537 Z M 130.815,66.312 C 130.06,66.336 129.451,66.964 129.471,67.727 C 129.488,68.489 130.123,69.09 130.877,69.079 C 131.644,69.06 132.248,68.432 132.23,67.669 C 132.211,66.901 131.582,66.289 130.815,66.312 Z M 130.724,61.828 C 129.96,61.847 129.35,62.473 129.365,63.237 C 129.385,63.998 130.022,64.603 130.781,64.582 C 131.546,64.568 132.149,63.934 132.133,63.175 C 132.115,62.403 131.48,61.81 130.724,61.828 Z M 140.932,59.135 C 141.02,60.414 141.08,61.715 141.111,63.037 C 141.271,70.404 139.245,77.175 137.011,82.361 L 125.33,82.615 C 122.871,77.532 120.552,70.855 120.399,63.484 C 120.367,62.162 120.376,60.858 120.407,59.582 L 140.932,59.135 Z" fill="#cccccc" marker-start="none" marker-end="none"/>
     <path d="M 140.515,54.638 L 140.436,54.291 C 140.485,54.677 140.54,55.059 140.582,55.442 L 120.593,55.883 C 120.609,55.571 120.642,55.274 120.664,54.972 L 115.303,51.497 L 117.768,37.429 L 119.304,37.394 L 119.987,48.584 L 121.401,49.297 C 121.439,49.03 121.484,48.761 121.538,48.486 L 122.552,48.477 L 122.504,46.386 L 125.017,46.327 L 124.971,44.272 L 135.684,44.041 L 135.727,46.103 L 138.242,46.041 L 138.284,48.129 L 139.316,48.108 C 139.385,48.391 139.449,48.691 139.515,48.981 L 141.156,48.066 L 141.343,36.856 L 142.889,36.815 L 145.957,50.767 L 140.515,54.638 Z" fill="#e20011" marker-start="none" marker-end="none"/>
     <path d="M 131.09,78.525 C 132.965,78.483 134.475,76.92 134.434,75.029 C 134.384,73.15 132.82,71.648 130.936,71.685 C 129.055,71.73 127.55,73.299 127.591,75.186 C 127.634,77.066 129.199,78.566 131.09,78.525 Z M 130.926,71.296 C 133.026,71.263 134.764,72.925 134.81,75.029 C 134.86,77.132 133.189,78.87 131.092,78.913 C 128.996,78.956 127.255,77.29 127.21,75.192 C 127.164,73.094 128.829,71.352 130.926,71.296 L 130.926,71.296 Z" fill="#e20011" marker-start="none" marker-end="none"/>
    </g>
    <g id="Group_1" font-size="65.387" font-family="Interstate Cond" stroke="none">
     <path d="M 22.125,92.449 L 22.125,32.074 L 104.625,32.074 L 104.625,92.449 L 22.125,92.449 Z" fill="#dc2134" stroke-linejoin="miter" marker-start="none" marker-end="none"/>
     <text xml:space="preserve" transform="translate(22.897 39.378) scale(1 -1)" fill="#ffffff" stroke-width="1.635" stroke-linecap="round" stroke-linejoin="round" stroke-miterlimit="79.8403193612775"><tspan x="0" y="0">CIE</tspan></text>
    </g>
    <text xml:space="preserve" transform="translate(153.55 70.811) scale(1 -1)" font-size="29.721" font-family="Interstate Light Cond" stroke="none" stroke-linecap="round" stroke-linejoin="round" stroke-width="0.742" fill="#000000" stroke-miterlimit="79.8403193612775"><tspan x="0" y="0">C</tspan><tspan x="13.236" y="0">ar</tspan><tspan x="34.919" y="0">eer</tspan><tspan x="69.518" y="0">s in </tspan><tspan x="0" y="32.898">Engineering</tspan></text>
   </g>
   <g id="Optional Content Layer from PDF"/>
  </g>
 </g>
</svg>
