<?xml version="1.0" standalone="no"?>
<!DOCTYPE svg PUBLIC "-//W3C//DTD SVG 1.1//EN" "http://www.w3.org/Graphics/SVG/1.1/DTD/svg11.dtd">
<!--Generator: Xara Designer (www.xara.com), SVG filter version: 4.0.0.1-->
<svg stroke-width="0.501" stroke-linejoin="bevel" fill-rule="evenodd" xmlns:xlink="http://www.w3.org/1999/xlink" xmlns="http://www.w3.org/2000/svg" version="1.1" overflow="visible" width="300pt" height="120pt" viewBox="0 0 300 120">
 <defs>
  <marker id="DefaultArrow2" markerUnits="strokeWidth" viewBox="0 0 1 1" markerWidth="1" markerHeight="1" overflow="visible" orient="auto">
   <!-- REF_ARROW_STRAIGHT (-2) -->
   <g transform="scale(0.0092592592)">
    <!-- 1/108 -->
    <path d="M -9 54 L -9 -54 L 117 0 z"/>
   </g>
  </marker>
  <marker id="DefaultArrow3" markerUnits="strokeWidth" viewBox="0 0 1 1" markerWidth="1" markerHeight="1" overflow="visible" orient="auto">
   <!-- REF_ARROW_ANGLED -->
   <g transform="scale(0.0092592592)">
    <path d="M -27 54 L -9 0 L -27 -54 L 135 0 z"/>
   </g>
  </marker>
  <marker id="DefaultArrow4" markerUnits="strokeWidth" viewBox="0 0 1 1" markerWidth="1" markerHeight="1" overflow="visible" orient="auto">
   <!-- REF_ARROW_ROUNDED -->
   <g transform="scale(0.0092592592)">
    <path d="M -9,0 L -9,-45 C -9,-51.708 2.808,-56.580 9,-54 L 117,-9 C 120.916,-7.369 126.000,-4.242 126,0 C 126,4.242 120.916,7.369 117,9 L 9,54 C 2.808,56.580 -9,51.708 -9,45 z"/>
   </g>
  </marker>
  <marker id="DefaultArrow5" markerUnits="strokeWidth" viewBox="0 0 1 1" markerWidth="1" markerHeight="1" overflow="visible" orient="auto">
   <!-- REF_ARROW_SPOT -->
   <g transform="scale(0.0092592592)">
    <path d="M -54, 0 C -54,29.807 -29.807,54 0,54 C 29.807,54 54,29.807 54,0 C 54,-29.807 29.807,-54 0,-54 C -29.807,-54 -54,-29.807 -54,0 z"/>
   </g>
  </marker>
  <marker id="DefaultArrow6" markerUnits="strokeWidth" viewBox="0 0 1 1" markerWidth="1" markerHeight="1" overflow="visible" orient="auto">
   <!-- REF_ARROW_DIAMOND -->
   <g transform="scale(0.0092592592)">
    <path d="M -63,0 L 0,63 L 63,0 L 0,-63 z"/>
   </g>
  </marker>
  <marker id="DefaultArrow7" markerUnits="strokeWidth" viewBox="0 0 1 1" markerWidth="1" markerHeight="1" overflow="visible" orient="auto">
   <!-- REF_ARROW_FEATHER -->
   <g transform="scale(0.0092592592)">
    <path d="M 18,-54 L 108,-54 L 63,0 L 108,54 L 18, 54 L -36,0 z"/>
   </g>
  </marker>
  <marker id="DefaultArrow8" markerUnits="strokeWidth" viewBox="0 0 1 1" markerWidth="1" markerHeight="1" overflow="visible" orient="auto">
   <!-- REF_ARROW_FEATHER2 -->
   <g transform="scale(0.0092592592)">
    <path d="M -36,0 L 18,-54 L 54,-54 L 18,-18 L 27,-18 L 63,-54 L 99,-54 L 63,-18 L 72,-18 L 108,-54 L 144,-54 L 90,0 L 144,54 L 108,54 L 72,18 L 63,18 L 99,54 L 63,54 L 27,18 L 18,18 L 54,54 L 18,54 z"/>
   </g>
  </marker>
  <marker id="DefaultArrow9" markerUnits="strokeWidth" viewBox="0 0 1 1" markerWidth="1" markerHeight="1" overflow="visible" orient="auto">
   <!-- REF_ARROW_HOLLOWDIAMOND -->
   <g transform="scale(0.0092592592)">
    <path d="M 0,45 L -45,0 L 0, -45 L 45, 0 z M 0, 63 L-63, 0 L 0, -63 L 63, 0 z"/>
   </g>
  </marker>
  <filter id="StainedFilter">
   <feBlend mode="multiply" in2="BackgroundImage" in="SourceGraphic" result="blend"/>
   <feComposite in="blend" in2="SourceAlpha" operator="in" result="comp"/>
  </filter>
  <filter id="BleachFilter">
   <feBlend mode="screen" in2="BackgroundImage" in="SourceGraphic" result="blend"/>
   <feComposite in="blend" in2="SourceAlpha" operator="in" result="comp"/>
  </filter>
  <filter id="InvertTransparencyBitmapFilter">
   <feComponentTransfer>
    <feFuncR type="gamma" amplitude="1.055" exponent=".416666666" offset="-0.055"/>
    <feFuncG type="gamma" amplitude="1.055" exponent=".416666666" offset="-0.055"/>
    <feFuncB type="gamma" amplitude="1.055" exponent=".416666666" offset="-0.055"/>
   </feComponentTransfer>
   <feComponentTransfer>
    <feFuncR type="linear" slope="-1" intercept="1"/>
    <feFuncG type="linear" slope="-1" intercept="1"/>
    <feFuncB type="linear" slope="-1" intercept="1"/>
    <feFuncA type="linear" slope="1" intercept="0"/>
   </feComponentTransfer>
   <feComponentTransfer>
    <feFuncR type="gamma" amplitude="1" exponent="2.4" offset="0"/>
    <feFuncG type="gamma" amplitude="1" exponent="2.4" offset="0"/>
    <feFuncB type="gamma" amplitude="1" exponent="2.4" offset="0"/>
   </feComponentTransfer>
  </filter>
 </defs>
 <g id="Document" fill="none" stroke="black" font-family="Times New Roman" font-size="16" transform="scale(1 -1)">
  <g id="Spread" transform="translate(0 -120)">
   <g id="Layer 1">
    <g id="Group" stroke="none">
     <path d="M 60.842,25.03 C 55.799,25.527 51.595,29.226 51.94,34.28 C 52.419,41.436 61.671,45.644 67.999,49.656 C 80.47,57.58 74.034,71.933 74.034,71.933 C 80.428,68.704 86.28,60.907 89.55,55.806 C 89.667,55.979 89.786,56.146 89.906,56.315 C 106.688,79.904 90.536,112.851 61.598,113.646 C 60.847,113.66 60.086,113.672 59.326,113.651 C 32.258,113.166 10.886,91.077 11.255,64.005 C 11.616,37.264 33.409,15.698 60.229,15.698 C 60.486,15.698 60.733,15.703 60.985,15.708 C 60.976,15.718 60.971,15.723 60.954,15.727 L 61.024,15.708 C 61.278,15.703 61.53,15.698 61.78,15.698 C 85.182,15.698 104.759,32.121 109.602,54.077 C 105.097,45.927 84.032,22.733 60.842,25.03 L 60.842,25.03 Z" fill="#e20011" fill-rule="nonzero" marker-start="none" marker-end="none"/>
     <path d="M 106.62,64.8 C 105.563,63.779 106.269,62.459 106.269,62.459 C 106.338,63.496 106.872,63.438 106.872,63.438 C 106.353,61.654 107.834,60.795 107.834,60.795 C 107.312,61.563 107.816,62.509 107.816,62.509 C 108.572,62.149 108.463,61.194 107.935,60.193 C 107.4,59.184 107.741,58.701 107.741,58.701 C 107.608,59.53 108.655,59.831 108.655,59.831 C 107.608,56.947 110.049,54.961 110.049,54.961 C 109.193,57.506 111.015,58.716 111.015,58.716 C 111.38,57.849 111.007,56.819 111.007,56.819 C 112.708,57.742 113.272,60.257 113.272,60.257 C 113.334,59.585 114.246,59.841 114.246,59.841 C 113.565,60.923 114.345,61.996 114.345,61.996 C 115.15,61.669 114.769,60.33 114.769,60.33 C 115.532,61.209 114.8,63.527 114.8,63.527 L 106.62,64.8 Z" fill="#e20011" fill-rule="nonzero" marker-start="none" marker-end="none"/>
     <path d="M 120.223,73.681 C 120.301,73.993 120.367,74.308 120.44,74.635 L 104.403,77.135 C 104.367,76.803 104.338,76.478 104.313,76.161 L 120.223,73.681 Z" fill="#e20011" fill-rule="nonzero" marker-start="none" marker-end="none"/>
     <path d="M 116.557,102.429 C 116.557,102.429 114.057,100.116 111.341,96.194 L 119.631,94.9 C 118.233,99.459 116.557,102.429 116.557,102.429 L 116.557,102.429 Z" fill="#e20011" fill-rule="nonzero" marker-start="none" marker-end="none"/>
     <path d="M 114.973,92.303 C 116.894,92.002 118.202,90.204 117.906,88.291 C 117.604,86.37 115.811,85.063 113.895,85.357 C 111.983,85.658 110.67,87.457 110.966,89.369 C 111.263,91.287 113.061,92.6 114.973,92.303 Z M 113.357,81.93 C 112.765,82.029 112.354,82.586 112.448,83.184 C 112.543,83.782 113.105,84.187 113.697,84.099 C 114.3,84.005 114.708,83.446 114.612,82.85 C 114.519,82.246 113.96,81.832 113.357,81.93 Z M 112.814,78.412 C 112.216,78.506 111.801,79.066 111.894,79.664 C 111.988,80.26 112.552,80.67 113.149,80.572 C 113.747,80.483 114.157,79.919 114.064,79.322 C 113.97,78.718 113.407,78.32 112.814,78.412 Z M 120.559,75.222 C 120.762,76.216 120.949,77.234 121.112,78.271 C 122.012,84.049 121.131,89.587 119.92,93.904 L 110.76,95.331 C 108.289,91.591 105.765,86.583 104.866,80.803 C 104.703,79.766 104.572,78.741 104.461,77.731 L 120.559,75.222 Z" fill="#e20011" fill-rule="nonzero" marker-start="none" marker-end="none"/>
     <path d="M 119.759,71.725 L 119.66,71.462 C 119.738,71.759 119.823,72.055 119.896,72.353 L 104.219,74.802 C 104.199,74.555 104.195,74.319 104.18,74.077 L 99.596,71.909 L 100.055,60.587 L 101.259,60.395 L 102.974,69.126 L 104.16,69.538 C 104.164,69.325 104.17,69.107 104.185,68.886 L 104.981,68.77 L 104.723,67.13 L 106.694,66.822 L 106.442,65.211 L 114.844,63.901 L 115.094,65.516 L 117.066,65.206 L 117.318,66.841 L 118.129,66.716 C 118.212,66.934 118.293,67.161 118.376,67.384 L 119.571,66.49 L 118.539,57.653 L 119.75,57.459 L 123.631,68.11 L 119.759,71.725 Z" fill="#e20011" fill-rule="nonzero" marker-start="none" marker-end="none"/>
     <path d="M 114.859,91.508 C 116.33,91.276 117.354,89.887 117.121,88.405 C 116.884,86.934 115.496,85.917 114.018,86.143 C 112.543,86.377 111.525,87.77 111.756,89.25 C 111.988,90.723 113.376,91.739 114.859,91.508 Z M 113.97,85.84 C 115.619,85.592 117.16,86.716 117.417,88.366 C 117.679,90.016 116.546,91.557 114.903,91.812 C 113.258,92.065 111.712,90.939 111.455,89.294 C 111.2,87.649 112.325,86.104 113.97,85.84 L 113.97,85.84 Z" fill="#e20011" fill-rule="nonzero" marker-start="none" marker-end="none"/>
     <path d="M 53.343,74.186 C 53.447,73.794 53.463,73.36 53.265,73 C 52.933,72.323 52.015,72.016 51.358,72.387 C 50.939,72.595 50.68,73.005 50.588,73.45 C 50.024,73.152 49.455,72.793 49.19,72.193 C 49.757,71.958 50.316,71.667 50.948,71.626 C 51.734,71.553 52.623,71.662 53.192,72.254 C 53.694,72.813 53.892,73.582 53.902,74.319 C 53.715,74.271 53.531,74.224 53.343,74.186 Z M 56.762,76.338 C 54.767,75.924 52.782,75.434 50.854,74.742 C 49.26,74.175 47.704,73.38 46.527,72.14 C 47.249,72.556 48.003,72.91 48.79,73.191 C 48.463,72.728 48.206,72.224 48.024,71.685 C 48.996,71.355 50.006,71.098 51.023,70.979 C 52.153,70.875 53.443,70.96 54.307,71.795 C 55.235,72.684 55.488,74.017 55.586,75.252 C 56.634,75.914 57.803,76.354 58.989,76.694 C 58.238,76.631 57.507,76.457 56.762,76.338 Z M 82.166,84.233 C 85.933,85.882 89.569,87.848 93.033,90.074 C 92.497,88.52 91.559,87.152 90.514,85.907 C 88.617,83.703 86.379,81.816 84.027,80.112 C 83.147,79.482 82.236,78.887 81.312,78.32 C 81.151,78.23 81.005,78.123 80.833,78.082 L 80.911,78.092 C 79.448,77.237 77.932,76.442 76.327,75.914 C 77.932,75.716 79.547,75.977 81.121,76.283 C 83.513,76.748 85.826,77.489 88.128,78.246 C 88.869,78.518 89.618,78.773 90.358,79.056 C 89.145,76.398 87.026,74.248 84.62,72.644 C 84.462,72.556 84.319,72.406 84.136,72.377 L 84.136,72.299 L 84.071,72.254 L 83.996,72.278 C 83.958,72.185 83.85,72.156 83.78,72.096 C 81.499,70.727 78.98,69.744 76.371,69.211 C 76.524,69.029 76.747,68.944 76.955,68.84 C 77.478,68.593 78.001,68.327 78.491,68.015 L 78.515,67.967 L 78.583,67.992 L 78.653,67.943 L 78.653,67.868 C 78.881,67.833 79.048,67.651 79.246,67.542 C 81.691,65.906 83.573,63.511 84.713,60.821 C 85.52,58.917 86.057,56.876 86.098,54.808 C 85.641,56.102 85.098,57.367 84.412,58.556 C 83.499,60.182 82.328,61.702 80.8,62.799 C 79.715,63.611 78.426,64.123 77.098,64.336 C 77.878,63.442 78.6,62.495 79.271,61.516 C 81.064,59.159 81.795,56.083 81.399,53.159 C 81.103,50.93 80.24,48.803 79.019,46.932 C 77.221,44.159 74.666,41.916 71.781,40.331 C 73.749,44.588 74.484,49.41 73.842,54.057 C 73.476,56.819 72.636,59.55 71.214,61.96 C 70.928,62.384 70.679,62.844 70.341,63.234 C 71.046,61.954 71.368,60.494 71.376,59.036 C 71.393,57.362 71.17,55.702 70.899,54.054 C 70.859,53.784 70.77,53.524 70.799,53.253 C 70.775,53.233 70.731,53.178 70.71,53.159 L 70.731,53.103 C 70.38,51.395 69.966,49.692 69.262,48.095 C 68.735,46.875 68.044,45.745 67.267,44.677 C 65.41,42.044 63.015,39.767 60.21,38.166 C 58.817,37.392 57.34,36.726 55.753,36.433 C 56.639,37.228 57.474,38.078 58.214,39.008 C 59.326,40.381 60.265,41.882 61.114,43.424 C 59.36,41.685 57.429,40.123 55.399,38.715 C 52.678,36.838 49.689,35.309 46.493,34.458 C 44.814,33.994 43.085,33.753 41.355,33.563 C 44.052,34.946 46.438,36.869 48.553,39.013 C 50.462,40.978 52.163,43.146 53.63,45.457 C 54.658,47.078 55.586,48.781 56.303,50.564 C 57.141,52.684 57.759,54.99 57.403,57.277 C 56.48,54.314 55.053,51.468 53.052,49.074 C 50.948,46.509 48.296,44.407 45.347,42.87 C 44.744,42.572 44.136,42.267 43.49,42.069 L 43.455,42.039 C 43.08,41.945 42.679,41.867 42.285,41.901 C 42.132,41.937 41.999,42.01 41.928,42.148 C 44.25,44.292 46.406,46.639 48.267,49.207 C 49.689,51.203 50.968,53.326 51.808,55.632 L 51.823,55.637 C 52.263,56.845 52.579,58.088 52.678,59.368 C 52.395,58.493 51.995,57.645 51.447,56.897 C 50.636,55.761 49.611,54.789 48.562,53.859 C 49.308,54.935 49.95,56.117 50.217,57.412 C 50.508,58.804 50.202,60.349 49.284,61.451 C 48.493,62.43 47.327,63.052 46.113,63.309 C 45.263,63.506 44.384,63.501 43.525,63.426 C 44.25,63.122 44.839,62.568 45.323,61.954 C 44.257,62.49 43.01,62.495 41.874,62.256 C 40.936,62.064 40.081,61.609 39.158,61.386 C 38.24,61.146 37.295,61.092 36.348,61.092 C 36.5,61.851 36.845,62.628 37.494,63.086 C 38.071,63.486 38.768,63.673 39.418,63.932 C 41.188,64.549 42.937,65.224 44.7,65.837 C 45.505,66.1 46.344,66.219 47.171,66.415 C 48.255,66.643 49.338,66.906 50.433,67.122 C 48.878,66.974 47.337,66.696 45.791,66.529 C 44.779,66.459 43.885,65.941 42.922,65.659 C 42.7,65.531 42.457,65.468 42.22,65.378 C 40.936,64.9 39.637,64.429 38.352,63.946 C 37.695,63.714 37.029,63.473 36.466,63.057 C 35.788,62.518 35.439,61.679 35.26,60.85 C 35,59.455 35.161,58.009 35.524,56.65 C 33.385,58.795 32.157,61.897 32.534,64.93 C 32.835,67.449 34.139,69.77 35.948,71.522 C 37.36,70.149 39.036,69.087 40.743,68.135 C 41.445,67.743 42.167,67.379 42.891,67.047 C 43.169,66.895 43.47,66.786 43.717,66.588 C 43.742,66.588 43.797,66.597 43.821,66.597 C 41.804,67.823 39.909,69.221 38.085,70.716 C 37.557,71.195 37.009,71.657 36.544,72.2 C 38.397,72.055 40.231,71.662 42.092,71.662 C 42.097,71.405 42.186,71.127 42.082,70.88 L 42.048,70.831 L 42.097,70.817 C 42.215,70.124 42.137,69.398 42.201,68.704 C 42.433,68.44 42.729,68.247 42.989,68.026 C 43.525,67.62 44.023,67.186 44.57,66.81 C 44.941,67.028 45.372,67.086 45.791,67.122 C 47.881,67.348 49.97,67.532 52.054,67.758 C 52.099,67.464 52.125,67.171 52.138,66.87 C 51.244,66.752 50.36,66.597 49.473,66.49 C 48.463,66.352 47.392,66.306 46.503,65.763 C 45.975,65.477 45.575,65.008 45.208,64.54 C 46.774,64.726 48.432,64.444 49.788,63.611 C 50.685,63.043 51.457,62.202 51.763,61.159 C 51.901,60.73 51.932,60.281 51.971,59.831 C 52.494,60.133 52.797,60.691 53.151,61.159 C 53.432,60.463 53.439,59.699 53.388,58.958 C 53.299,57.737 52.92,56.556 52.434,55.431 C 52.356,55.259 52.263,55.094 52.153,54.946 C 52.109,54.818 52.05,54.69 52.015,54.556 C 52.184,54.748 52.356,54.935 52.543,55.104 C 52.766,55.454 53.066,55.761 53.304,56.102 C 53.863,57.05 54.258,58.083 54.489,59.159 C 54.702,57.645 54.476,56.097 54.045,54.636 C 53.403,52.534 52.325,50.579 50.918,48.895 C 52.959,50.976 54.702,53.406 55.612,56.187 C 56.368,58.329 56.446,60.71 55.753,62.883 C 57.561,60.591 58.609,57.645 58.357,54.711 C 58.233,53.064 57.617,51.512 57.078,49.958 C 56.946,49.558 56.758,49.162 56.613,48.754 C 57.64,49.425 58.599,50.244 59.309,51.245 C 60.379,52.699 60.989,54.438 61.252,56.211 C 62.008,54.711 62.567,53.035 62.388,51.345 C 62.17,49.518 61.128,47.918 59.992,46.52 C 60.026,46.475 60.072,46.407 60.096,46.361 C 61.232,47.483 62.284,48.697 63.105,50.082 C 64.556,52.463 65.479,55.194 65.593,57.989 C 65.658,59.096 65.535,60.201 65.356,61.289 C 66.315,59.886 66.996,58.29 67.316,56.621 C 67.766,54.101 67.501,51.494 66.778,49.054 C 66.57,48.398 66.373,47.735 66.063,47.119 C 65.983,46.932 65.857,46.74 65.86,46.535 C 65.913,46.574 65.964,46.62 66.003,46.662 C 67.05,48.357 67.974,50.13 68.74,51.969 L 68.735,51.988 C 69.605,54.147 70.138,56.463 70.138,58.804 C 70.256,60.986 69.644,63.22 68.374,65.003 C 70.608,64.385 73.003,64.104 75.269,64.702 C 74.133,64.845 72.972,64.944 71.887,65.344 C 70.034,65.98 68.49,67.231 67.11,68.574 C 68.903,68.244 70.71,67.937 72.532,67.828 C 73.003,67.813 73.476,67.784 73.951,67.842 C 73.689,67.956 73.389,67.925 73.12,68.002 C 71.476,68.348 69.871,68.894 68.365,69.632 C 67.223,70.165 66.182,70.866 65.06,71.428 C 64.483,71.711 63.895,71.969 63.29,72.193 C 62.442,72.486 61.567,72.688 60.683,72.835 C 60.358,72.886 60.038,72.905 59.711,72.951 C 60.135,73.053 60.576,73.044 61.005,73.073 C 62.131,73.109 63.253,73.182 64.379,73.226 C 66.216,73.385 68.057,73.647 69.792,74.298 C 70.188,74.412 70.543,74.654 70.949,74.727 C 70.167,74.017 69.323,73.38 68.418,72.818 C 68.195,72.653 67.929,72.53 67.771,72.299 C 67.89,72.302 68.009,72.333 68.111,72.387 C 68.872,72.782 69.678,73.089 70.424,73.507 C 72.829,74.802 74.988,76.58 76.608,78.789 C 77.073,79.426 77.473,80.107 77.862,80.795 C 77.922,80.904 77.962,81.014 77.987,81.13 C 77.34,80.502 76.687,79.88 75.931,79.381 C 74.666,78.531 73.283,77.864 71.822,77.429 C 70.058,76.892 68.212,76.66 66.37,76.537 C 67.16,76.931 67.989,77.258 68.745,77.723 C 69.556,78.196 70.3,78.773 71.012,79.381 C 71.102,79.446 71.146,79.553 71.16,79.664 C 69.936,78.923 68.542,78.513 67.149,78.22 C 66.087,77.994 65.01,77.89 63.934,77.825 C 64.551,78.157 65.099,78.586 65.603,79.066 C 65.801,79.254 65.998,79.441 66.131,79.682 C 64.941,79.313 63.761,78.932 62.544,78.62 C 60.789,78.157 58.984,77.864 57.162,77.801 C 56.59,77.801 56.051,77.622 55.501,77.465 C 54.253,77.099 53.018,76.66 51.787,76.229 C 50.059,75.524 48.371,74.718 46.7,73.897 C 46.28,73.726 45.89,73.489 45.456,73.375 C 46.336,74.24 47.293,75.025 48.296,75.755 C 48.979,76.265 49.611,76.844 50.173,77.489 C 50.341,77.707 50.547,77.915 50.623,78.186 C 49.045,77.326 47.402,76.567 45.749,75.854 C 43.06,74.742 40.294,73.76 37.414,73.261 C 38.761,75.192 40.359,76.957 42.194,78.438 C 45.629,81.205 49.65,83.249 53.902,84.434 C 57.543,85.471 61.301,85.975 65.055,86.37 C 66.299,86.499 67.544,86.604 68.779,86.775 C 69.569,86.885 70.351,87.043 71.146,87.098 L 70.991,87.176 C 71.12,87.165 71.25,87.155 71.376,87.141 C 71.219,86.988 70.967,87.067 70.775,87.002 C 66.136,86.05 61.514,84.829 57.226,82.784 C 56.075,82.242 54.983,81.609 53.886,80.972 C 54.386,81.055 54.854,81.268 55.344,81.398 C 57.156,81.93 58.984,82.464 60.855,82.76 C 63.337,83.283 65.871,83.323 68.374,83.618 C 68.764,83.654 69.125,83.787 69.491,83.921 C 70.755,84.592 72.053,85.175 73.324,85.827 C 74.786,86.568 76.253,87.31 77.582,88.267 C 78.247,88.737 78.86,89.284 79.508,89.788 C 79.419,89.068 79.082,88.4 78.708,87.792 C 78.653,87.719 78.614,87.625 78.525,87.586 L 78.549,87.516 L 78.504,87.443 L 78.426,87.443 C 78.398,87.285 78.268,87.152 78.183,87.014 C 77.319,85.84 76.396,84.715 75.427,83.633 C 74.939,83.121 74.456,82.593 73.883,82.165 L 73.883,82.152 C 73.314,81.658 72.691,81.224 72.053,80.837 C 73.719,81.317 75.398,81.767 77.047,82.315 C 78.788,82.864 80.482,83.535 82.166,84.233 L 82.166,84.233 Z" fill="#ffffff" marker-start="none" marker-end="none"/>
     <path d="M 191.548,81.643 C 191.25,95.271 184.043,104.646 167.456,104.646 C 159.071,104.646 152.353,102.379 147.617,98.136 C 141.101,92.114 137.842,83.618 137.842,72.956 C 137.842,64.567 139.719,57.653 143.666,51.831 C 149.296,43.64 157.78,40.479 167.656,40.479 C 182.66,40.479 190.855,47.488 194.709,59.333 L 195.79,58.449 C 192.338,45.118 180.295,37.615 165.29,37.615 C 153.044,37.615 143.77,41.56 138.04,48.082 C 133.297,53.508 130.443,61.702 130.443,71.28 C 130.443,83.917 135.179,92.407 142.479,98.335 C 148.301,103.168 156.3,106.327 167.656,106.327 C 178.917,106.327 187.206,102.182 191.151,98.136 L 193.033,104.453 L 194.116,104.058 C 193.033,97.938 192.541,87.071 192.738,81.946 L 191.548,81.643 Z" fill="#dc2134" fill-rule="nonzero" marker-start="none" marker-end="none"/>
     <path d="M 212.283,85.99 C 212.283,93.301 212.283,95.661 212.179,99.125 C 212.081,102.873 209.417,103.071 202.305,103.466 L 202.305,104.657 C 204.774,104.552 210.599,104.249 214.843,104.249 C 218.989,104.249 225.51,104.657 228.272,104.657 L 228.371,103.466 C 221.46,103.568 219.391,102.578 218.989,99.42 C 218.797,97.345 218.601,93.301 218.601,86.682 L 218.601,60.325 C 218.601,51.935 218.695,47.78 218.989,44.523 C 219.292,41.365 222.349,40.775 228.865,40.479 L 228.865,39.287 C 224.919,39.387 218.107,39.689 214.747,39.689 C 211.69,39.689 204.874,39.486 202.21,39.287 L 202.21,40.479 C 208.133,40.676 211.59,41.56 211.789,44.222 C 211.883,46.594 212.283,49.36 212.283,60.325 L 212.283,85.99 Z" fill="#dc2134" fill-rule="nonzero" marker-start="none" marker-end="none"/>
     <path d="M 232.712,104.646 C 234.687,104.646 240.516,104.249 246.247,104.249 L 265.297,104.249 C 273.688,104.249 280.304,104.844 281.78,105.343 C 281.583,102.676 281.094,93.79 281.583,89.349 L 280.304,89.349 C 279.909,92.303 279.408,95.266 278.623,97.839 C 277.537,101.288 276.549,102.478 262.828,102.478 L 250.979,102.478 C 249.699,102.478 249.402,102.177 249.304,100.891 C 249.1,97.538 248.905,93.197 248.905,86.287 L 248.905,74.438 C 249.995,74.24 256.806,74.24 258.19,74.24 C 271.905,74.24 272.892,75.821 273.887,83.223 L 274.968,83.223 C 274.376,75.727 274.376,69.009 274.875,61.702 L 273.688,61.702 C 272.991,71.473 271.808,72.363 258.19,72.363 C 256.017,72.363 249.995,72.363 248.905,72.067 L 248.905,61.702 C 248.905,56.471 249.002,47.883 249.304,43.933 C 249.402,41.763 250.884,41.365 263.619,41.365 C 277.635,41.365 280.304,42.351 282.47,45.017 C 284.452,47.286 286.028,52.224 287.116,56.271 L 288.2,56.271 C 288.2,54.295 285.731,42.252 285.138,39.096 C 282.57,39.486 275.563,39.689 257.786,39.689 L 245.846,39.689 C 240.911,39.689 234.096,39.287 231.334,39.287 L 231.432,40.479 L 238.931,41.264 C 241.017,41.462 241.993,41.763 242.289,46.303 C 242.585,50.644 242.585,56.073 242.585,61.604 L 242.585,80.958 C 242.585,89.64 242.487,96.254 242.289,99.614 C 242.195,101.984 241.306,102.676 238.04,102.972 L 232.712,103.466 L 232.712,104.646 Z" fill="#dc2134" fill-rule="nonzero" marker-start="none" marker-end="none"/>
     <path d="M 142.703,27.118 C 142.642,29.642 141.31,31.385 138.225,31.385 C 136.67,31.385 135.422,30.97 134.545,30.176 C 133.333,29.059 132.728,27.484 132.728,25.503 C 132.728,23.942 133.074,22.663 133.811,21.582 C 134.853,20.059 136.429,19.472 138.261,19.472 C 141.047,19.472 142.568,20.771 143.29,22.973 L 143.487,22.806 C 142.845,20.335 140.611,18.938 137.827,18.938 C 135.55,18.938 133.825,19.669 132.764,20.878 C 131.888,21.891 131.352,23.414 131.352,25.192 C 131.352,27.538 132.231,29.114 133.588,30.21 C 134.675,31.109 136.163,31.697 138.261,31.697 C 140.355,31.697 141.897,30.931 142.624,30.176 L 142.973,31.349 L 143.178,31.278 C 142.973,30.141 142.88,28.126 142.919,27.173 L 142.703,27.118 Z" fill="#e20011" fill-rule="nonzero" marker-start="none" marker-end="none"/>
     <path d="M 146.312,21.42 C 146.312,20.355 146.95,19.64 148.036,19.64 C 149.536,19.64 150.343,20.539 150.694,21.433 C 150.788,21.655 150.82,21.987 150.82,22.169 L 150.843,24.386 C 150.216,24.071 148.329,23.36 147.503,23.012 C 146.915,22.77 146.312,22.481 146.312,21.433 L 146.312,21.42 Z M 150.843,25.067 C 150.843,25.907 150.323,27.004 148.768,27.004 C 147.084,27.004 146.481,26.11 146.481,25.251 C 146.481,25.008 146.534,24.771 146.549,24.662 C 146.568,24.548 146.481,24.441 146.421,24.407 C 146.294,24.308 146.149,24.293 146,24.293 C 145.71,24.293 145.468,24.529 145.468,24.974 C 145.468,25.928 146.737,27.281 148.964,27.281 C 150.713,27.281 151.35,26.564 151.628,26.145 C 151.776,25.907 151.869,25.503 151.869,25.156 L 151.869,20.662 C 151.869,19.674 152.196,19.601 152.472,19.601 C 152.927,19.601 153.218,20.04 153.439,20.83 L 153.668,20.756 C 153.439,19.708 152.94,19.071 152.033,19.071 C 150.985,19.071 150.747,19.872 150.747,20.781 C 149.671,19.615 148.47,19.071 147.414,19.071 C 145.853,19.071 145.028,20.006 145.028,21.288 C 145.028,21.966 145.286,22.648 146.243,22.956 C 147.799,23.511 150.383,24.373 150.843,24.662 L 150.843,25.067 Z" fill="#e20011" fill-rule="nonzero" marker-start="none" marker-end="none"/>
     <path d="M 155.367,24.386 C 155.367,25.517 155.277,26.258 155.224,26.476 C 155.188,26.585 155.11,26.679 154.798,26.679 L 154.068,26.697 L 154.127,26.897 C 154.695,26.897 155.757,27.004 156.266,27.206 L 156.3,27.191 C 156.339,26.969 156.392,25.577 156.392,25.137 L 156.435,25.137 C 156.929,26.24 157.658,27.281 158.983,27.281 C 159.747,27.281 160.134,26.717 160.134,26.258 C 160.134,25.685 159.802,25.483 159.565,25.483 C 159.347,25.483 159.206,25.597 159.178,25.774 C 159.178,26.346 159.001,26.767 158.356,26.767 C 157.564,26.767 156.797,25.725 156.508,24.386 C 156.454,24.129 156.435,23.837 156.435,23.432 C 156.435,21.142 156.435,20.478 156.469,19.984 C 156.488,19.615 156.576,19.531 158.117,19.472 L 158.063,19.255 C 157.535,19.255 156.67,19.334 155.939,19.334 C 155.095,19.334 154.669,19.255 154.032,19.255 L 154.087,19.472 C 155.059,19.531 155.242,19.601 155.292,19.936 C 155.352,20.269 155.367,21.103 155.367,22.515 L 155.367,24.386 Z" fill="#e20011" fill-rule="nonzero" marker-start="none" marker-end="none"/>
     <path d="M 164.849,26.99 C 162.998,26.99 162.187,25.704 162.024,23.765 L 164.316,23.765 C 165.709,23.765 166.494,23.837 166.86,23.911 C 167.157,23.986 167.232,24.17 167.232,24.441 C 167.232,25.854 166.494,26.99 164.87,26.99 L 164.849,26.99 Z M 164.796,19.071 C 163.274,19.071 162.213,19.505 161.516,20.464 C 161.036,21.088 160.76,22.021 160.76,23.048 C 160.76,25.517 162.315,27.281 164.96,27.281 C 167.889,27.281 168.362,25.067 168.362,24.373 C 168.362,23.986 168.277,23.744 168.015,23.674 C 167.726,23.576 166.722,23.472 165.234,23.45 C 164.336,23.432 162.816,23.45 161.985,23.45 C 161.956,22.515 162.247,21.433 162.681,20.794 C 163.235,20.027 164.004,19.601 165.127,19.601 C 167.029,19.601 167.71,20.478 168.238,21.689 L 168.44,21.582 C 167.804,19.936 166.608,19.071 164.796,19.071 L 164.796,19.071 Z" fill="#e20011" fill-rule="nonzero" marker-start="none" marker-end="none"/>
     <path d="M 173.943,26.99 C 172.09,26.99 171.281,25.704 171.118,23.765 L 173.41,23.765 C 174.801,23.765 175.593,23.837 175.952,23.911 C 176.25,23.986 176.324,24.17 176.324,24.441 C 176.324,25.854 175.593,26.99 173.963,26.99 L 173.943,26.99 Z M 173.885,19.071 C 172.362,19.071 171.3,19.505 170.605,20.464 C 170.13,21.088 169.854,22.021 169.854,23.048 C 169.854,25.517 171.411,27.281 174.047,27.281 C 176.986,27.281 177.461,25.067 177.461,24.373 C 177.461,23.986 177.366,23.744 177.109,23.674 C 176.819,23.576 175.809,23.472 174.324,23.45 C 173.425,23.432 171.908,23.45 171.084,23.45 C 171.042,22.515 171.336,21.433 171.775,20.794 C 172.324,20.027 173.098,19.601 174.215,19.601 C 176.121,19.601 176.797,20.478 177.332,21.689 L 177.529,21.582 C 176.898,19.936 175.707,19.071 173.885,19.071 L 173.885,19.071 Z" fill="#e20011" fill-rule="nonzero" marker-start="none" marker-end="none"/>
     <path d="M 179.811,24.386 C 179.811,25.517 179.718,26.258 179.663,26.476 C 179.629,26.585 179.549,26.679 179.244,26.679 L 178.512,26.697 L 178.561,26.897 C 179.128,26.897 180.201,27.004 180.71,27.206 L 180.741,27.191 C 180.78,26.969 180.84,25.577 180.84,25.137 L 180.874,25.137 C 181.371,26.24 182.098,27.281 183.426,27.281 C 184.188,27.281 184.577,26.717 184.577,26.258 C 184.577,25.685 184.248,25.483 184.004,25.483 C 183.793,25.483 183.639,25.597 183.626,25.774 C 183.626,26.346 183.442,26.767 182.795,26.767 C 182.008,26.767 181.24,25.725 180.947,24.386 C 180.893,24.129 180.874,23.837 180.874,23.432 C 180.874,21.142 180.874,20.478 180.908,19.984 C 180.928,19.615 181.017,19.531 182.563,19.472 L 182.498,19.255 C 181.974,19.255 181.11,19.334 180.38,19.334 C 179.535,19.334 179.115,19.255 178.472,19.255 L 178.527,19.472 C 179.5,19.531 179.684,19.601 179.738,19.936 C 179.79,20.269 179.811,21.103 179.811,22.515 L 179.811,24.386 Z" fill="#e20011" fill-rule="nonzero" marker-start="none" marker-end="none"/>
     <path d="M 190.574,31.019 C 191.013,31.019 191.231,30.71 191.231,30.323 C 191.231,29.883 190.849,29.592 190.462,29.592 C 190.184,29.592 189.818,29.808 189.818,30.265 C 189.818,30.762 190.244,31.019 190.548,31.019 L 190.574,31.019 Z M 192.239,19.255 C 191.8,19.255 191.156,19.323 190.446,19.323 C 189.783,19.323 189.305,19.255 188.609,19.255 L 188.677,19.472 C 189.765,19.531 189.888,19.635 189.908,19.95 C 189.952,20.321 190.022,21.338 190.022,22.114 L 190.022,24.204 C 190.022,25.685 189.987,26.307 189.927,26.549 C 189.888,26.712 189.631,26.782 188.772,26.733 L 188.864,26.951 C 189.467,26.969 190.574,27.084 191.177,27.26 C 191.119,26.639 191.083,25.449 191.083,24.178 L 191.083,22.114 C 191.083,20.859 191.083,20.335 191.119,19.984 C 191.156,19.601 191.265,19.505 192.239,19.472 L 192.239,19.255 Z" fill="#e20011" fill-rule="nonzero" marker-start="none" marker-end="none"/>
     <path d="M 193.178,19.472 C 194.166,19.516 194.386,19.536 194.404,19.95 C 194.446,20.464 194.493,20.794 194.493,22.169 L 194.493,24.219 C 194.493,25.177 194.446,26.071 194.404,26.496 C 194.386,26.752 194.314,26.752 193.196,26.752 L 193.28,26.935 C 194.036,26.935 194.808,27.024 195.519,27.206 C 195.519,26.793 195.559,25.8 195.559,25.454 C 196.313,26.258 197.484,27.287 199.041,27.287 C 200.526,27.287 201.242,26.549 201.481,26.055 C 201.646,25.725 201.698,25.36 201.698,24.901 L 201.698,19.991 C 201.698,19.58 201.811,19.565 202.982,19.472 L 202.908,19.255 C 202.527,19.255 201.737,19.334 201.042,19.334 C 200.429,19.334 199.891,19.255 199.296,19.255 L 199.296,19.472 C 200.271,19.516 200.473,19.625 200.507,19.95 C 200.562,20.464 200.635,21.27 200.635,23.012 C 200.635,25.299 200.58,25.483 200.364,25.854 C 200.029,26.44 199.426,26.733 198.581,26.733 C 197.194,26.733 196.294,26.071 195.759,25.067 C 195.577,24.716 195.559,24.511 195.559,24.134 L 195.559,22.154 C 195.559,20.938 195.597,20.207 195.632,19.895 C 195.686,19.601 195.834,19.472 196.951,19.472 L 196.916,19.255 C 196.403,19.255 195.577,19.334 195.065,19.334 C 194.347,19.349 193.799,19.255 193.178,19.255 L 193.178,19.472 Z" fill="#e20011" fill-rule="nonzero" marker-start="none" marker-end="none"/>
     <path d="M 207.22,31.391 C 207.581,31.391 208.666,31.317 209.728,31.317 L 213.27,31.317 C 214.822,31.317 216.057,31.425 216.328,31.513 C 216.294,31.026 216.198,29.379 216.294,28.55 L 216.057,28.55 C 215.982,29.098 215.89,29.646 215.74,30.12 C 215.537,30.767 215.36,30.987 212.813,30.987 L 210.609,30.987 C 210.367,30.987 210.316,30.931 210.297,30.692 C 210.263,30.072 210.227,29.26 210.227,27.981 L 210.227,25.774 C 210.43,25.74 211.69,25.74 211.951,25.74 C 214.495,25.74 214.679,26.031 214.866,27.409 L 215.064,27.409 C 214.955,26.016 214.955,24.771 215.043,23.414 L 214.822,23.414 C 214.698,25.236 214.476,25.395 211.951,25.395 C 211.547,25.395 210.43,25.395 210.227,25.335 L 210.227,23.414 C 210.227,22.445 210.243,20.851 210.297,20.113 C 210.316,19.713 210.594,19.64 212.949,19.64 C 215.558,19.64 216.057,19.822 216.455,20.321 C 216.824,20.74 217.114,21.655 217.322,22.409 L 217.517,22.409 C 217.517,22.04 217.06,19.802 216.951,19.216 C 216.47,19.294 215.173,19.334 211.878,19.334 L 209.655,19.334 C 208.743,19.334 207.477,19.255 206.958,19.255 L 206.983,19.472 L 208.375,19.625 C 208.761,19.659 208.943,19.713 208.998,20.558 C 209.053,21.364 209.053,22.37 209.053,23.398 L 209.053,26.99 C 209.053,28.604 209.032,29.829 208.998,30.452 C 208.978,30.897 208.811,31.026 208.208,31.074 L 207.22,31.169 L 207.22,31.391 Z" fill="#e20011" fill-rule="nonzero" marker-start="none" marker-end="none"/>
     <path d="M 218.383,19.472 C 219.374,19.516 219.592,19.536 219.613,19.95 C 219.646,20.464 219.706,20.794 219.706,22.169 L 219.706,24.219 C 219.706,25.177 219.646,26.071 219.613,26.496 C 219.592,26.752 219.519,26.752 218.402,26.752 L 218.495,26.935 C 219.246,26.935 220.018,27.024 220.73,27.206 C 220.73,26.793 220.764,25.8 220.764,25.454 C 221.518,26.258 222.694,27.287 224.251,27.287 C 225.738,27.287 226.448,26.549 226.687,26.055 C 226.853,25.725 226.908,25.36 226.908,24.901 L 226.908,19.991 C 226.908,19.58 227.017,19.565 228.194,19.472 L 228.119,19.255 C 227.727,19.255 226.947,19.334 226.251,19.334 C 225.644,19.334 225.096,19.255 224.514,19.255 L 224.514,19.472 C 225.476,19.516 225.679,19.625 225.713,19.95 C 225.772,20.464 225.845,21.27 225.845,23.012 C 225.845,25.299 225.792,25.483 225.575,25.854 C 225.244,26.44 224.641,26.733 223.791,26.733 C 222.399,26.733 221.499,26.071 220.971,25.067 C 220.789,24.716 220.764,24.511 220.764,24.134 L 220.764,22.154 C 220.764,20.938 220.803,20.207 220.837,19.895 C 220.897,19.601 221.04,19.472 222.16,19.472 L 222.128,19.255 C 221.608,19.255 220.789,19.334 220.275,19.334 C 219.558,19.349 219.006,19.255 218.383,19.255 L 218.383,19.472 Z" fill="#e20011" fill-rule="nonzero" marker-start="none" marker-end="none"/>
     <path d="M 233.015,26.969 C 231.526,26.969 230.944,25.941 230.944,24.427 C 230.944,23.232 231.456,21.75 232.994,21.75 C 234.481,21.75 235.053,22.85 235.053,24.407 C 235.053,25.818 234.575,26.969 233.033,26.969 L 233.015,26.969 Z M 231.142,18.336 C 230.469,18.172 229.896,17.767 229.896,16.779 C 229.896,15.037 231.71,14.622 233.068,14.622 C 235.346,14.622 236.751,15.97 236.751,17.382 C 236.751,18.518 235.726,18.869 235.116,18.869 C 232.756,18.869 231.768,18.889 231.167,18.889 C 230.634,18.889 229.896,19.012 229.496,19.456 C 229.219,19.768 229.091,20.074 229.091,20.558 C 229.091,21.304 229.783,22.06 230.416,22.406 C 229.949,22.85 229.733,23.596 229.733,24.204 C 229.733,26.184 231.235,27.287 233.181,27.287 C 234.37,27.287 235.014,26.861 235.269,26.717 C 236.005,27.26 236.55,27.559 237.01,27.559 C 237.483,27.559 237.746,27.26 237.746,27.06 C 237.65,26.847 237.395,26.564 237.246,26.496 C 237.103,26.639 236.807,26.793 236.298,26.793 C 235.947,26.793 235.705,26.658 235.45,26.549 C 236.005,26.016 236.298,25.236 236.298,24.461 C 236.298,22.46 234.752,21.493 232.994,21.493 C 232.026,21.493 231.18,21.728 230.612,22.154 C 230.011,22.006 229.66,21.42 229.66,20.883 C 229.66,20.188 230.247,19.95 230.775,19.95 C 232.683,19.95 233.878,19.991 235.069,19.991 C 235.78,19.991 236.313,19.822 236.717,19.531 C 237.265,19.107 237.524,18.544 237.524,17.883 C 237.524,15.189 234.534,14.25 232.667,14.25 C 230.227,14.25 228.989,15.224 228.989,16.594 C 228.989,17.111 229.166,17.455 229.571,17.787 C 229.847,18.024 230.429,18.351 231.033,18.518 L 231.142,18.336 Z" fill="#e20011" fill-rule="nonzero" marker-start="none" marker-end="none"/>
     <path d="M 239.997,31.019 C 240.438,31.019 240.661,30.71 240.661,30.323 C 240.661,29.883 240.275,29.592 239.888,29.592 C 239.617,29.592 239.246,29.808 239.246,30.265 C 239.246,30.762 239.666,31.019 239.983,31.019 L 239.997,31.019 Z M 241.667,19.255 C 241.226,19.255 240.584,19.323 239.874,19.323 C 239.212,19.323 238.733,19.255 238.036,19.255 L 238.112,19.472 C 239.191,19.531 239.32,19.635 239.341,19.95 C 239.373,20.321 239.45,21.338 239.45,22.114 L 239.45,24.204 C 239.45,25.685 239.416,26.307 239.36,26.549 C 239.32,26.712 239.064,26.782 238.2,26.733 L 238.294,26.951 C 238.897,26.969 239.997,27.084 240.6,27.26 C 240.552,26.639 240.516,25.449 240.516,24.178 L 240.516,22.114 C 240.516,20.859 240.516,20.335 240.552,19.984 C 240.584,19.601 240.693,19.505 241.667,19.472 L 241.667,19.255 Z" fill="#e20011" fill-rule="nonzero" marker-start="none" marker-end="none"/>
     <path d="M 246.878,26.99 C 245.025,26.99 244.222,25.704 244.053,23.765 L 246.345,23.765 C 247.737,23.765 248.526,23.837 248.893,23.911 C 249.184,23.986 249.259,24.17 249.259,24.441 C 249.259,25.854 248.526,26.99 246.892,26.99 L 246.878,26.99 Z M 246.819,19.071 C 245.298,19.071 244.236,19.505 243.537,20.464 C 243.066,21.088 242.788,22.021 242.788,23.048 C 242.788,25.517 244.344,27.281 246.982,27.281 C 249.922,27.281 250.395,25.067 250.395,24.373 C 250.395,23.986 250.301,23.744 250.046,23.674 C 249.753,23.576 248.745,23.472 247.26,23.45 C 246.359,23.432 244.843,23.45 244.017,23.45 C 243.978,22.515 244.269,21.433 244.709,20.794 C 245.259,20.027 246.029,19.601 247.151,19.601 C 249.056,19.601 249.733,20.478 250.267,21.689 L 250.463,21.582 C 249.826,19.936 248.636,19.071 246.819,19.071 L 246.819,19.071 Z" fill="#e20011" fill-rule="nonzero" marker-start="none" marker-end="none"/>
     <path d="M 255.967,26.99 C 254.119,26.99 253.309,25.704 253.147,23.765 L 255.432,23.765 C 256.827,23.765 257.617,23.837 257.987,23.911 C 258.283,23.986 258.346,24.17 258.346,24.441 C 258.346,25.854 257.617,26.99 255.986,26.99 L 255.967,26.99 Z M 255.912,19.071 C 254.392,19.071 253.329,19.505 252.633,20.464 C 252.154,21.088 251.881,22.021 251.881,23.048 C 251.881,25.517 253.443,27.281 256.076,27.281 C 259.01,27.281 259.487,25.067 259.487,24.373 C 259.487,23.986 259.395,23.744 259.138,23.674 C 258.847,23.576 257.839,23.472 256.352,23.45 C 255.458,23.432 253.937,23.45 253.111,23.45 C 253.072,22.515 253.365,21.433 253.803,20.794 C 254.351,20.027 255.127,19.601 256.245,19.601 C 258.15,19.601 258.826,20.478 259.359,21.689 L 259.564,21.582 C 258.92,19.936 257.729,19.071 255.912,19.071 L 255.912,19.071 Z" fill="#e20011" fill-rule="nonzero" marker-start="none" marker-end="none"/>
     <path d="M 261.834,24.386 C 261.834,25.517 261.745,26.258 261.691,26.476 C 261.656,26.585 261.584,26.679 261.266,26.679 L 260.536,26.697 L 260.589,26.897 C 261.163,26.897 262.225,27.004 262.733,27.206 L 262.777,27.191 C 262.813,26.969 262.862,25.577 262.862,25.137 L 262.901,25.137 C 263.395,26.24 264.126,27.281 265.451,27.281 C 266.217,27.281 266.602,26.717 266.602,26.258 C 266.602,25.685 266.27,25.483 266.033,25.483 C 265.815,25.483 265.672,25.597 265.649,25.774 C 265.649,26.346 265.469,26.767 264.824,26.767 C 264.042,26.767 263.266,25.725 262.976,24.386 C 262.922,24.129 262.901,23.837 262.901,23.432 C 262.901,21.142 262.901,20.478 262.935,19.984 C 262.956,19.615 263.055,19.531 264.58,19.472 L 264.536,19.255 C 264.003,19.255 263.14,19.334 262.407,19.334 C 261.563,19.334 261.137,19.255 260.5,19.255 L 260.554,19.472 C 261.527,19.531 261.711,19.601 261.76,19.936 C 261.82,20.269 261.834,21.103 261.834,22.515 L 261.834,24.386 Z" fill="#e20011" fill-rule="nonzero" marker-start="none" marker-end="none"/>
     <path d="M 269.204,31.019 C 269.648,31.019 269.87,30.71 269.87,30.323 C 269.87,29.883 269.48,29.592 269.097,29.592 C 268.819,29.592 268.453,29.808 268.453,30.265 C 268.453,30.762 268.877,31.019 269.189,31.019 L 269.204,31.019 Z M 270.873,19.255 C 270.439,19.255 269.791,19.323 269.08,19.323 C 268.419,19.323 267.939,19.255 267.247,19.255 L 267.317,19.472 C 268.398,19.531 268.526,19.635 268.547,19.95 C 268.586,20.321 268.661,21.338 268.661,22.114 L 268.661,24.204 C 268.661,25.685 268.622,26.307 268.567,26.549 C 268.526,26.712 268.271,26.782 267.41,26.733 L 267.505,26.951 C 268.107,26.969 269.204,27.084 269.812,27.26 C 269.753,26.639 269.718,25.449 269.718,24.178 L 269.718,22.114 C 269.718,20.859 269.718,20.335 269.753,19.984 C 269.791,19.601 269.906,19.505 270.873,19.472 L 270.873,19.255 Z" fill="#e20011" fill-rule="nonzero" marker-start="none" marker-end="none"/>
     <path d="M 271.808,19.472 C 272.794,19.516 273.022,19.536 273.038,19.95 C 273.076,20.464 273.131,20.794 273.131,22.169 L 273.131,24.219 C 273.131,25.177 273.076,26.071 273.038,26.496 C 273.022,26.752 272.949,26.752 271.826,26.752 L 271.92,26.935 C 272.666,26.935 273.443,27.024 274.153,27.206 C 274.153,26.793 274.189,25.8 274.189,25.454 C 274.943,26.258 276.118,27.287 277.676,27.287 C 279.156,27.287 279.878,26.549 280.114,26.055 C 280.278,25.725 280.333,25.36 280.333,24.901 L 280.333,19.991 C 280.333,19.58 280.445,19.565 281.617,19.472 L 281.542,19.255 C 281.157,19.255 280.366,19.334 279.672,19.334 C 279.068,19.334 278.521,19.255 277.931,19.255 L 277.931,19.472 C 278.906,19.516 279.103,19.625 279.142,19.95 C 279.197,20.464 279.27,21.27 279.27,23.012 C 279.27,25.299 279.215,25.483 278.994,25.854 C 278.662,26.44 278.064,26.733 277.216,26.733 C 275.823,26.733 274.924,26.071 274.394,25.067 C 274.212,24.716 274.189,24.511 274.189,24.134 L 274.189,22.154 C 274.189,20.938 274.226,20.207 274.267,19.895 C 274.321,19.601 274.47,19.472 275.58,19.472 L 275.545,19.255 C 275.038,19.255 274.212,19.334 273.7,19.334 C 272.983,19.349 272.43,19.255 271.808,19.255 L 271.808,19.472 Z" fill="#e20011" fill-rule="nonzero" marker-start="none" marker-end="none"/>
     <path d="M 286.438,26.969 C 284.956,26.969 284.367,25.941 284.367,24.427 C 284.367,23.232 284.881,21.75 286.417,21.75 C 287.904,21.75 288.471,22.85 288.471,24.407 C 288.471,25.818 288,26.969 286.457,26.969 L 286.438,26.969 Z M 284.566,18.336 C 283.894,18.172 283.325,17.767 283.325,16.779 C 283.325,15.037 285.138,14.622 286.498,14.622 C 288.769,14.622 290.176,15.97 290.176,17.382 C 290.176,18.518 289.151,18.869 288.546,18.869 C 286.181,18.869 285.191,18.889 284.59,18.889 C 284.058,18.889 283.325,19.012 282.916,19.456 C 282.649,19.768 282.516,20.074 282.516,20.558 C 282.516,21.304 283.207,22.06 283.836,22.406 C 283.379,22.85 283.156,23.596 283.156,24.204 C 283.156,26.184 284.66,27.287 286.607,27.287 C 287.795,27.287 288.439,26.861 288.694,26.717 C 289.43,27.26 289.978,27.559 290.435,27.559 C 290.911,27.559 291.169,27.26 291.169,27.06 C 291.074,26.847 290.818,26.564 290.675,26.496 C 290.523,26.639 290.23,26.793 289.723,26.793 C 289.367,26.793 289.128,26.658 288.873,26.549 C 289.43,26.016 289.723,25.236 289.723,24.461 C 289.723,22.46 288.182,21.493 286.417,21.493 C 285.45,21.493 284.605,21.728 284.036,22.154 C 283.434,22.006 283.09,21.42 283.09,20.883 C 283.09,20.188 283.672,19.95 284.205,19.95 C 286.111,19.95 287.301,19.991 288.492,19.991 C 289.203,19.991 289.736,19.822 290.141,19.531 C 290.69,19.107 290.953,18.544 290.953,17.883 C 290.953,15.189 287.959,14.25 286.089,14.25 C 283.65,14.25 282.407,15.224 282.407,16.594 C 282.407,17.111 282.589,17.455 282.994,17.787 C 283.267,18.024 283.854,18.351 284.457,18.518 L 284.566,18.336 Z" fill="#e20011" fill-rule="nonzero" marker-start="none" marker-end="none"/>
    </g>
   </g>
   <g id="Optional Content Layer from PDF"/>
  </g>
 </g>
</svg>
