<?xml version="1.0" standalone="no"?>
<!DOCTYPE svg PUBLIC "-//W3C//DTD SVG 1.1//EN" "http://www.w3.org/Graphics/SVG/1.1/DTD/svg11.dtd">
<!--Generator: Xara Designer (www.xara.com), SVG filter version: 4.0.0.1-->
<svg stroke-width="0.501" stroke-linejoin="bevel" fill-rule="evenodd" xmlns:xlink="http://www.w3.org/1999/xlink" xmlns="http://www.w3.org/2000/svg" version="1.1" overflow="visible" width="187.5pt" height="60pt" viewBox="0 0 187.5 60">
 <defs>
  <marker id="DefaultArrow2" markerUnits="strokeWidth" viewBox="0 0 1 1" markerWidth="1" markerHeight="1" overflow="visible" orient="auto">
   <!-- REF_ARROW_STRAIGHT (-2) -->
   <g transform="scale(0.0092592592)">
    <!-- 1/108 -->
    <path d="M -9 54 L -9 -54 L 117 0 z"/>
   </g>
  </marker>
  <marker id="DefaultArrow3" markerUnits="strokeWidth" viewBox="0 0 1 1" markerWidth="1" markerHeight="1" overflow="visible" orient="auto">
   <!-- REF_ARROW_ANGLED -->
   <g transform="scale(0.0092592592)">
    <path d="M -27 54 L -9 0 L -27 -54 L 135 0 z"/>
   </g>
  </marker>
  <marker id="DefaultArrow4" markerUnits="strokeWidth" viewBox="0 0 1 1" markerWidth="1" markerHeight="1" overflow="visible" orient="auto">
   <!-- REF_ARROW_ROUNDED -->
   <g transform="scale(0.0092592592)">
    <path d="M -9,0 L -9,-45 C -9,-51.708 2.808,-56.580 9,-54 L 117,-9 C 120.916,-7.369 126.000,-4.242 126,0 C 126,4.242 120.916,7.369 117,9 L 9,54 C 2.808,56.580 -9,51.708 -9,45 z"/>
   </g>
  </marker>
  <marker id="DefaultArrow5" markerUnits="strokeWidth" viewBox="0 0 1 1" markerWidth="1" markerHeight="1" overflow="visible" orient="auto">
   <!-- REF_ARROW_SPOT -->
   <g transform="scale(0.0092592592)">
    <path d="M -54, 0 C -54,29.807 -29.807,54 0,54 C 29.807,54 54,29.807 54,0 C 54,-29.807 29.807,-54 0,-54 C -29.807,-54 -54,-29.807 -54,0 z"/>
   </g>
  </marker>
  <marker id="DefaultArrow6" markerUnits="strokeWidth" viewBox="0 0 1 1" markerWidth="1" markerHeight="1" overflow="visible" orient="auto">
   <!-- REF_ARROW_DIAMOND -->
   <g transform="scale(0.0092592592)">
    <path d="M -63,0 L 0,63 L 63,0 L 0,-63 z"/>
   </g>
  </marker>
  <marker id="DefaultArrow7" markerUnits="strokeWidth" viewBox="0 0 1 1" markerWidth="1" markerHeight="1" overflow="visible" orient="auto">
   <!-- REF_ARROW_FEATHER -->
   <g transform="scale(0.0092592592)">
    <path d="M 18,-54 L 108,-54 L 63,0 L 108,54 L 18, 54 L -36,0 z"/>
   </g>
  </marker>
  <marker id="DefaultArrow8" markerUnits="strokeWidth" viewBox="0 0 1 1" markerWidth="1" markerHeight="1" overflow="visible" orient="auto">
   <!-- REF_ARROW_FEATHER2 -->
   <g transform="scale(0.0092592592)">
    <path d="M -36,0 L 18,-54 L 54,-54 L 18,-18 L 27,-18 L 63,-54 L 99,-54 L 63,-18 L 72,-18 L 108,-54 L 144,-54 L 90,0 L 144,54 L 108,54 L 72,18 L 63,18 L 99,54 L 63,54 L 27,18 L 18,18 L 54,54 L 18,54 z"/>
   </g>
  </marker>
  <marker id="DefaultArrow9" markerUnits="strokeWidth" viewBox="0 0 1 1" markerWidth="1" markerHeight="1" overflow="visible" orient="auto">
   <!-- REF_ARROW_HOLLOWDIAMOND -->
   <g transform="scale(0.0092592592)">
    <path d="M 0,45 L -45,0 L 0, -45 L 45, 0 z M 0, 63 L-63, 0 L 0, -63 L 63, 0 z"/>
   </g>
  </marker>
  <filter id="StainedFilter">
   <feBlend mode="multiply" in2="BackgroundImage" in="SourceGraphic" result="blend"/>
   <feComposite in="blend" in2="SourceAlpha" operator="in" result="comp"/>
  </filter>
  <filter id="BleachFilter">
   <feBlend mode="screen" in2="BackgroundImage" in="SourceGraphic" result="blend"/>
   <feComposite in="blend" in2="SourceAlpha" operator="in" result="comp"/>
  </filter>
  <filter id="InvertTransparencyBitmapFilter">
   <feComponentTransfer>
    <feFuncR type="gamma" amplitude="1.055" exponent=".416666666" offset="-0.055"/>
    <feFuncG type="gamma" amplitude="1.055" exponent=".416666666" offset="-0.055"/>
    <feFuncB type="gamma" amplitude="1.055" exponent=".416666666" offset="-0.055"/>
   </feComponentTransfer>
   <feComponentTransfer>
    <feFuncR type="linear" slope="-1" intercept="1"/>
    <feFuncG type="linear" slope="-1" intercept="1"/>
    <feFuncB type="linear" slope="-1" intercept="1"/>
    <feFuncA type="linear" slope="1" intercept="0"/>
   </feComponentTransfer>
   <feComponentTransfer>
    <feFuncR type="gamma" amplitude="1" exponent="2.4" offset="0"/>
    <feFuncG type="gamma" amplitude="1" exponent="2.4" offset="0"/>
    <feFuncB type="gamma" amplitude="1" exponent="2.4" offset="0"/>
   </feComponentTransfer>
  </filter>
 </defs>
 <g id="Document" fill="none" stroke="black" font-family="Times New Roman" font-size="16" transform="scale(1 -1)">
  <g id="Spread" transform="translate(0 -60)">
   <g id="Layer 1">
    <g id="Group" fill="#dc2134">
     <g id="Group_1" fill-rule="nonzero" stroke-linejoin="round" stroke-linecap="round" stroke="none" stroke-width="0.612" stroke-miterlimit="79.8403193612775">
      <g id="Group_2">
       <path d="M 48.497,21.843 C 48.487,22.938 48.222,23.864 47.709,24.621 C 47.195,25.376 46.479,25.946 45.57,26.333 C 44.663,26.723 43.615,26.92 42.429,26.92 C 41.506,26.92 40.66,26.82 39.892,26.633 C 39.121,26.449 38.416,26.187 37.773,25.862 C 37.136,25.536 36.543,25.162 36.008,24.741 L 37.085,23.037 C 37.576,23.409 38.086,23.725 38.607,23.991 C 39.123,24.26 39.681,24.465 40.285,24.61 C 40.883,24.753 41.549,24.828 42.281,24.828 C 43.149,24.825 43.873,24.688 44.462,24.418 C 45.044,24.152 45.488,23.779 45.779,23.297 C 46.079,22.817 46.228,22.266 46.228,21.633 C 46.234,21.085 46.163,20.596 46.017,20.153 C 45.872,19.715 45.609,19.288 45.228,18.877 C 44.842,18.462 44.303,18.03 43.603,17.565 C 42.902,17.103 42.008,16.576 40.908,15.987 C 39.767,15.374 38.748,14.733 37.857,14.073 C 36.964,13.409 36.187,12.681 35.523,11.886 C 34.859,11.09 34.302,10.186 33.85,9.171 C 33.402,8.158 33.042,6.993 32.782,5.68 L 46.405,5.68 L 46.763,7.888 L 35.92,7.888 C 36.05,8.443 36.251,8.988 36.527,9.53 C 36.801,10.073 37.183,10.612 37.666,11.157 C 38.15,11.699 38.771,12.247 39.523,12.8 C 40.278,13.354 41.197,13.917 42.281,14.491 C 43.509,15.145 44.527,15.755 45.333,16.325 C 46.142,16.895 46.774,17.463 47.239,18.023 C 47.705,18.582 48.028,19.17 48.221,19.788 C 48.409,20.41 48.505,21.089 48.497,21.843 Z" marker-start="none" marker-end="none"/>
       <path d="M 67.944,26.59 L 65.258,26.59 L 61.908,21.994 C 61.418,21.333 60.955,20.707 60.525,20.115 C 60.093,19.525 59.7,18.974 59.341,18.462 C 59.149,18.979 58.951,19.499 58.74,20.026 C 58.53,20.549 58.292,21.134 58.026,21.782 L 56.116,26.59 L 53.663,26.59 L 57.819,16.645 L 49.449,5.68 L 52.14,5.68 L 56.201,11.176 C 56.71,11.833 57.178,12.446 57.602,13.03 C 58.034,13.611 58.43,14.166 58.805,14.702 C 58.966,14.246 59.149,13.751 59.356,13.221 C 59.565,12.694 59.809,12.08 60.092,11.384 L 62.359,5.68 L 64.809,5.68 L 60.298,16.523 L 67.944,26.59 Z" marker-start="none" marker-end="none"/>
       <path d="M 93.814,26.59 L 79.295,26.59 L 78.906,24.471 L 85.03,24.471 L 81.714,5.68 L 84.043,5.68 L 87.361,24.471 L 93.425,24.471 L 93.814,26.59 Z" marker-start="none" marker-end="none"/>
       <path d="M 110.545,26.59 L 98.055,26.59 L 94.353,5.68 L 107.32,5.68 L 107.706,7.802 L 97.07,7.802 L 98.474,15.777 L 104.45,15.777 L 104.807,17.899 L 98.833,17.899 L 99.997,24.471 L 110.188,24.471 L 110.545,26.59 Z" marker-start="none" marker-end="none"/>
       <path d="M 128.33,23.248 C 127.906,24.015 127.4,24.674 126.817,25.221 C 126.235,25.766 125.545,26.187 124.748,26.478 C 123.955,26.771 123.025,26.92 121.965,26.92 C 120.802,26.913 119.703,26.685 118.67,26.237 C 117.635,25.788 116.694,25.162 115.844,24.35 C 114.992,23.544 114.253,22.596 113.635,21.512 C 113.014,20.428 112.534,19.248 112.198,17.964 C 111.863,16.685 111.692,15.345 111.684,13.952 C 111.698,12.099 112.015,10.531 112.633,9.255 C 113.256,7.976 114.121,7.005 115.233,6.345 C 116.346,5.685 117.639,5.353 119.124,5.351 C 120.082,5.358 120.971,5.495 121.8,5.777 C 122.625,6.064 123.395,6.457 124.109,6.961 C 124.822,7.468 125.48,8.052 126.086,8.724 L 124.683,10.222 C 123.902,9.36 123.082,8.69 122.213,8.208 C 121.352,7.724 120.366,7.482 119.277,7.472 C 118.232,7.472 117.318,7.74 116.532,8.261 C 115.744,8.782 115.131,9.533 114.691,10.516 C 114.25,11.501 114.025,12.686 114.018,14.073 C 114.018,15.197 114.141,16.282 114.387,17.333 C 114.631,18.383 114.981,19.358 115.435,20.26 C 115.887,21.165 116.425,21.955 117.058,22.634 C 117.684,23.313 118.384,23.839 119.155,24.22 C 119.927,24.602 120.754,24.793 121.638,24.799 C 122.436,24.796 123.119,24.688 123.689,24.471 C 124.256,24.252 124.745,23.933 125.164,23.518 C 125.576,23.098 125.953,22.592 126.296,21.994 L 128.33,23.248 Z" marker-start="none" marker-end="none"/>
       <path d="M 148.259,26.59 L 145.925,26.59 L 144.343,17.657 L 134.067,17.657 L 135.648,26.59 L 133.318,26.59 L 129.616,5.68 L 131.943,5.68 L 133.706,15.536 L 143.984,15.536 L 142.223,5.68 L 144.553,5.68 L 148.259,26.59 Z" marker-start="none" marker-end="none"/>
      </g>
     </g>
     <g id="Group_3" stroke="#dc2134" stroke-linejoin="round" stroke-linecap="round" stroke-width="1.541" stroke-miterlimit="79.8403193612775">
      <path d="M 152.15,56.417 L 161.084,56.417" fill="none"/>
      <path d="M 161.084,56.417 L 161.084,6.448" fill="none"/>
      <path d="M 161.075,6.54 L 152.051,6.54" fill="none"/>
     </g>
     <g id="Group_4" stroke="#dc2134" stroke-linejoin="round" stroke-linecap="round" stroke-width="1.541" stroke-miterlimit="79.8403193612775">
      <path d="M 28.576,56.417 L 19.643,56.417" fill="none"/>
      <path d="M 19.643,56.417 L 19.643,6.448" fill="none"/>
      <path d="M 19.65,6.54 L 28.676,6.54" fill="none"/>
     </g>
     <g id="Group_5" fill-rule="nonzero" stroke="none">
      <path d="M 110.266,57.097 L 110.266,44.103 L 98.68,57.097 L 92.691,57.097 L 92.691,32.856 L 99.359,32.856 L 99.359,45.848 L 110.78,32.856 L 116.928,32.856 L 116.928,57.097 L 110.266,57.097 Z" marker-start="none" marker-end="none"/>
      <path d="M 86.565,43.879 L 86.565,46.525 L 86.565,48.911 L 86.565,48.911 C 86.565,48.915 86.565,48.915 86.565,48.915 L 86.565,57.394 L 80.044,57.394 L 79.898,57.394 L 79.898,48.911 L 79.898,43.879 C 79.898,43.287 79.808,42.752 79.62,42.265 C 79.383,41.638 78.99,41.101 78.443,40.629 C 77.421,39.75 75.93,39.226 74.455,39.219 L 74.455,39.224 L 74.455,39.224 C 74.451,39.224 74.451,39.224 74.449,39.224 C 74.449,39.224 74.447,39.224 74.447,39.224 L 74.447,39.224 L 74.443,39.219 C 72.972,39.226 71.479,39.75 70.457,40.629 C 69.909,41.101 69.519,41.638 69.277,42.265 C 69.091,42.752 69.002,43.287 69.002,43.879 L 69.002,48.911 L 69.002,57.394 L 68.857,57.394 L 62.337,57.394 L 62.337,48.915 C 62.337,48.915 62.337,48.915 62.337,48.911 L 62.337,48.911 L 62.337,46.525 L 62.337,43.879 L 62.337,42.265 L 62.337,42.265 C 62.337,36.902 68.121,32.645 74.142,32.557 C 74.203,32.557 74.264,32.555 74.327,32.555 C 74.352,32.555 74.377,32.555 74.402,32.555 C 74.414,32.555 74.43,32.555 74.447,32.555 L 74.447,32.555 C 74.447,32.555 74.449,32.555 74.449,32.555 C 74.451,32.555 74.451,32.555 74.455,32.555 C 74.458,32.555 74.458,32.555 74.461,32.555 L 74.458,32.555 C 74.473,32.555 74.485,32.555 74.502,32.555 C 74.521,32.555 74.548,32.555 74.571,32.555 C 74.633,32.555 74.696,32.557 74.762,32.557 C 80.779,32.645 86.565,36.778 86.565,42.265 L 86.565,42.265 L 86.565,43.879 Z" marker-start="none" marker-end="none"/>
      <path d="M 49.798,41.652 C 48.72,39.857 46.801,38.654 44.605,38.625 C 44.577,38.62 44.548,38.62 44.521,38.62 C 41.101,38.62 38.328,41.465 38.328,44.976 C 38.328,48.484 41.101,51.33 44.521,51.33 C 44.548,51.33 44.577,51.328 44.605,51.328 C 46.801,51.3 48.72,50.094 49.798,48.302 L 57.061,48.302 C 57.061,53.767 51.3,57.897 45.299,58.003 C 45.283,58.003 45.267,58.003 45.252,58.005 C 45.19,58.005 45.127,58.005 45.064,58.005 C 45.042,58.005 45.016,58.005 44.992,58.005 C 44.98,58.005 44.966,58.005 44.954,58.005 L 44.957,58.005 C 44.954,58.005 44.949,58.005 44.949,58.005 C 44.945,58.005 44.945,58.005 44.945,58.005 L 44.939,58.005 L 44.939,58.005 C 44.927,58.005 44.911,58.005 44.896,58.005 C 44.871,58.005 44.847,58.005 44.822,58.005 C 44.759,58.005 44.697,58.005 44.635,58.005 L 44.147,58.005 C 39.377,58.005 35.208,55.438 32.937,51.612 C 31.78,49.672 31.118,47.4 31.118,44.981 L 31.118,44.981 L 31.118,44.976 L 31.118,44.973 L 31.118,44.973 C 31.118,42.549 31.78,40.279 32.937,38.337 C 35.208,34.51 39.377,31.949 44.147,31.949 L 44.635,31.949 C 44.697,31.949 44.759,31.949 44.822,31.949 C 44.847,31.949 44.871,31.949 44.896,31.949 C 44.911,31.949 44.927,31.949 44.939,31.949 L 44.939,31.949 C 44.943,31.949 44.943,31.949 44.945,31.949 C 44.945,31.949 44.945,31.949 44.949,31.949 C 44.949,31.949 44.954,31.949 44.957,31.949 L 44.954,31.949 C 44.966,31.949 44.98,31.949 44.992,31.949 C 45.016,31.949 45.042,31.949 45.064,31.949 C 45.127,31.949 45.19,31.949 45.252,31.949 C 45.267,31.949 45.283,31.951 45.299,31.951 C 51.3,32.053 57.061,36.182 57.061,41.652 L 49.798,41.652 Z" marker-start="none" marker-end="none"/>
      <path d="M 140.624,57.097 L 135.171,45.973 L 129.718,57.097 L 123.052,57.097 L 131.841,39.177 L 131.841,32.856 L 138.505,32.856 L 138.505,39.177 L 147.292,57.097 L 140.624,57.097 Z" marker-start="none" marker-end="none"/>
     </g>
    </g>
   </g>
   <g id="Optional Content Layer from PDF"/>
  </g>
 </g>
</svg>
