<?xml version="1.0" standalone="no"?>
<!DOCTYPE svg PUBLIC "-//W3C//DTD SVG 1.1//EN" "http://www.w3.org/Graphics/SVG/1.1/DTD/svg11.dtd">
<!--Generator: Xara Designer (www.xara.com), SVG filter version: 4.0.0.1-->
<svg stroke-width="0.501" stroke-linejoin="bevel" fill-rule="evenodd" xmlns:xlink="http://www.w3.org/1999/xlink" xmlns="http://www.w3.org/2000/svg" version="1.1" overflow="visible" width="187.5pt" height="60pt" viewBox="0 0 187.5 60">
 <defs>
  <marker id="DefaultArrow2" markerUnits="strokeWidth" viewBox="0 0 1 1" markerWidth="1" markerHeight="1" overflow="visible" orient="auto">
   <!-- REF_ARROW_STRAIGHT (-2) -->
   <g transform="scale(0.0092592592)">
    <!-- 1/108 -->
    <path d="M -9 54 L -9 -54 L 117 0 z"/>
   </g>
  </marker>
  <marker id="DefaultArrow3" markerUnits="strokeWidth" viewBox="0 0 1 1" markerWidth="1" markerHeight="1" overflow="visible" orient="auto">
   <!-- REF_ARROW_ANGLED -->
   <g transform="scale(0.0092592592)">
    <path d="M -27 54 L -9 0 L -27 -54 L 135 0 z"/>
   </g>
  </marker>
  <marker id="DefaultArrow4" markerUnits="strokeWidth" viewBox="0 0 1 1" markerWidth="1" markerHeight="1" overflow="visible" orient="auto">
   <!-- REF_ARROW_ROUNDED -->
   <g transform="scale(0.0092592592)">
    <path d="M -9,0 L -9,-45 C -9,-51.708 2.808,-56.580 9,-54 L 117,-9 C 120.916,-7.369 126.000,-4.242 126,0 C 126,4.242 120.916,7.369 117,9 L 9,54 C 2.808,56.580 -9,51.708 -9,45 z"/>
   </g>
  </marker>
  <marker id="DefaultArrow5" markerUnits="strokeWidth" viewBox="0 0 1 1" markerWidth="1" markerHeight="1" overflow="visible" orient="auto">
   <!-- REF_ARROW_SPOT -->
   <g transform="scale(0.0092592592)">
    <path d="M -54, 0 C -54,29.807 -29.807,54 0,54 C 29.807,54 54,29.807 54,0 C 54,-29.807 29.807,-54 0,-54 C -29.807,-54 -54,-29.807 -54,0 z"/>
   </g>
  </marker>
  <marker id="DefaultArrow6" markerUnits="strokeWidth" viewBox="0 0 1 1" markerWidth="1" markerHeight="1" overflow="visible" orient="auto">
   <!-- REF_ARROW_DIAMOND -->
   <g transform="scale(0.0092592592)">
    <path d="M -63,0 L 0,63 L 63,0 L 0,-63 z"/>
   </g>
  </marker>
  <marker id="DefaultArrow7" markerUnits="strokeWidth" viewBox="0 0 1 1" markerWidth="1" markerHeight="1" overflow="visible" orient="auto">
   <!-- REF_ARROW_FEATHER -->
   <g transform="scale(0.0092592592)">
    <path d="M 18,-54 L 108,-54 L 63,0 L 108,54 L 18, 54 L -36,0 z"/>
   </g>
  </marker>
  <marker id="DefaultArrow8" markerUnits="strokeWidth" viewBox="0 0 1 1" markerWidth="1" markerHeight="1" overflow="visible" orient="auto">
   <!-- REF_ARROW_FEATHER2 -->
   <g transform="scale(0.0092592592)">
    <path d="M -36,0 L 18,-54 L 54,-54 L 18,-18 L 27,-18 L 63,-54 L 99,-54 L 63,-18 L 72,-18 L 108,-54 L 144,-54 L 90,0 L 144,54 L 108,54 L 72,18 L 63,18 L 99,54 L 63,54 L 27,18 L 18,18 L 54,54 L 18,54 z"/>
   </g>
  </marker>
  <marker id="DefaultArrow9" markerUnits="strokeWidth" viewBox="0 0 1 1" markerWidth="1" markerHeight="1" overflow="visible" orient="auto">
   <!-- REF_ARROW_HOLLOWDIAMOND -->
   <g transform="scale(0.0092592592)">
    <path d="M 0,45 L -45,0 L 0, -45 L 45, 0 z M 0, 63 L-63, 0 L 0, -63 L 63, 0 z"/>
   </g>
  </marker>
  <filter id="StainedFilter">
   <feBlend mode="multiply" in2="BackgroundImage" in="SourceGraphic" result="blend"/>
   <feComposite in="blend" in2="SourceAlpha" operator="in" result="comp"/>
  </filter>
  <filter id="BleachFilter">
   <feBlend mode="screen" in2="BackgroundImage" in="SourceGraphic" result="blend"/>
   <feComposite in="blend" in2="SourceAlpha" operator="in" result="comp"/>
  </filter>
  <filter id="InvertTransparencyBitmapFilter">
   <feComponentTransfer>
    <feFuncR type="gamma" amplitude="1.055" exponent=".416666666" offset="-0.055"/>
    <feFuncG type="gamma" amplitude="1.055" exponent=".416666666" offset="-0.055"/>
    <feFuncB type="gamma" amplitude="1.055" exponent=".416666666" offset="-0.055"/>
   </feComponentTransfer>
   <feComponentTransfer>
    <feFuncR type="linear" slope="-1" intercept="1"/>
    <feFuncG type="linear" slope="-1" intercept="1"/>
    <feFuncB type="linear" slope="-1" intercept="1"/>
    <feFuncA type="linear" slope="1" intercept="0"/>
   </feComponentTransfer>
   <feComponentTransfer>
    <feFuncR type="gamma" amplitude="1" exponent="2.4" offset="0"/>
    <feFuncG type="gamma" amplitude="1" exponent="2.4" offset="0"/>
    <feFuncB type="gamma" amplitude="1" exponent="2.4" offset="0"/>
   </feComponentTransfer>
  </filter>
 </defs>
 <g id="Document" fill="none" stroke="black" font-family="Times New Roman" font-size="16" transform="scale(1 -1)">
  <g id="Spread" transform="translate(0 -60)">
   <g id="Layer 1">
    <g id="Group" stroke="none">
     <path d="M 42.744,8.361 C 39.885,8.643 37.501,10.741 37.697,13.606 C 37.968,17.664 43.214,20.05 46.802,22.324 C 53.874,26.817 50.224,34.956 50.224,34.956 C 53.85,33.125 57.167,28.704 59.022,25.812 C 59.088,25.91 59.155,26.004 59.224,26.1 C 68.739,39.476 59.581,58.157 43.173,58.607 C 42.747,58.616 42.316,58.622 41.884,58.61 C 26.537,58.335 14.419,45.811 14.628,30.46 C 14.832,15.298 27.189,3.07 42.397,3.07 C 42.542,3.07 42.683,3.073 42.825,3.076 C 42.82,3.081 42.817,3.084 42.808,3.087 L 42.847,3.076 C 42.991,3.073 43.134,3.07 43.276,3.07 C 56.545,3.07 67.645,12.382 70.392,24.831 C 67.837,20.21 55.893,7.059 42.744,8.361 L 42.744,8.361 Z" fill="#e20011" fill-rule="nonzero" marker-start="none" marker-end="none"/>
     <path d="M 68.7,30.911 C 68.101,30.332 68.501,29.584 68.501,29.584 C 68.541,30.172 68.843,30.139 68.843,30.139 C 68.549,29.128 69.389,28.64 69.389,28.64 C 69.093,29.076 69.379,29.613 69.379,29.613 C 69.807,29.408 69.746,28.867 69.446,28.299 C 69.143,27.727 69.336,27.453 69.336,27.453 C 69.261,27.923 69.854,28.094 69.854,28.094 C 69.261,26.459 70.645,25.333 70.645,25.333 C 70.159,26.776 71.193,27.461 71.193,27.461 C 71.4,26.97 71.188,26.386 71.188,26.386 C 72.153,26.909 72.473,28.335 72.473,28.335 C 72.508,27.955 73.025,28.099 73.025,28.099 C 72.639,28.713 73.081,29.321 73.081,29.321 C 73.537,29.136 73.321,28.377 73.321,28.377 C 73.754,28.875 73.339,30.189 73.339,30.189 L 68.7,30.911 Z" fill="#e20011" fill-rule="nonzero" marker-start="none" marker-end="none"/>
     <path d="M 76.413,35.947 C 76.458,36.124 76.495,36.303 76.537,36.488 L 67.443,37.905 C 67.423,37.717 67.407,37.533 67.393,37.353 L 76.413,35.947 Z" fill="#e20011" fill-rule="nonzero" marker-start="none" marker-end="none"/>
     <path d="M 74.335,52.247 C 74.335,52.247 72.918,50.936 71.378,48.712 L 76.078,47.978 C 75.285,50.564 74.335,52.247 74.335,52.247 L 74.335,52.247 Z" fill="#e20011" fill-rule="nonzero" marker-start="none" marker-end="none"/>
     <path d="M 73.437,46.506 C 74.526,46.335 75.268,45.316 75.1,44.231 C 74.929,43.142 73.912,42.401 72.826,42.568 C 71.742,42.738 70.997,43.758 71.165,44.842 C 71.334,45.93 72.353,46.674 73.437,46.506 Z M 72.521,40.624 C 72.185,40.68 71.952,40.996 72.005,41.335 C 72.059,41.675 72.378,41.904 72.713,41.854 C 73.055,41.801 73.286,41.484 73.232,41.146 C 73.18,40.804 72.862,40.569 72.521,40.624 Z M 72.213,38.63 C 71.874,38.683 71.639,39 71.691,39.339 C 71.745,39.677 72.064,39.91 72.403,39.854 C 72.742,39.804 72.974,39.484 72.921,39.146 C 72.868,38.803 72.549,38.577 72.213,38.63 Z M 76.604,36.82 C 76.719,37.384 76.825,37.961 76.918,38.549 C 77.428,41.826 76.929,44.966 76.242,47.413 L 71.048,48.223 C 69.647,46.102 68.216,43.263 67.706,39.985 C 67.614,39.397 67.539,38.816 67.477,38.243 L 76.604,36.82 Z" fill="#e20011" fill-rule="nonzero" marker-start="none" marker-end="none"/>
     <path d="M 76.151,34.838 L 76.095,34.689 C 76.139,34.857 76.187,35.025 76.228,35.194 L 67.339,36.583 C 67.328,36.443 67.325,36.309 67.317,36.172 L 64.718,34.942 L 64.978,28.522 L 65.661,28.414 L 66.633,33.364 L 67.306,33.598 C 67.308,33.477 67.312,33.353 67.32,33.228 L 67.772,33.163 L 67.625,32.233 L 68.743,32.058 L 68.6,31.144 L 73.364,30.401 L 73.506,31.318 L 74.624,31.141 L 74.767,32.069 L 75.226,31.998 C 75.273,32.121 75.32,32.25 75.367,32.376 L 76.044,31.87 L 75.459,26.859 L 76.145,26.749 L 78.346,32.788 L 76.151,34.838 Z" fill="#e20011" fill-rule="nonzero" marker-start="none" marker-end="none"/>
     <path d="M 73.372,46.055 C 74.206,45.923 74.787,45.136 74.655,44.296 C 74.52,43.462 73.733,42.885 72.896,43.013 C 72.059,43.145 71.482,43.935 71.613,44.775 C 71.745,45.61 72.532,46.186 73.372,46.055 Z M 72.868,42.841 C 73.803,42.7 74.677,43.338 74.823,44.274 C 74.971,45.209 74.329,46.083 73.397,46.227 C 72.464,46.371 71.588,45.732 71.442,44.8 C 71.298,43.867 71.935,42.991 72.868,42.841 L 72.868,42.841 Z" fill="#e20011" fill-rule="nonzero" marker-start="none" marker-end="none"/>
     <path d="M 38.492,36.233 C 38.551,36.011 38.56,35.765 38.448,35.561 C 38.26,35.177 37.739,35.003 37.367,35.213 C 37.129,35.331 36.982,35.563 36.93,35.816 C 36.61,35.647 36.287,35.444 36.137,35.103 C 36.459,34.97 36.776,34.805 37.134,34.782 C 37.58,34.74 38.084,34.802 38.406,35.138 C 38.691,35.455 38.803,35.891 38.809,36.309 C 38.703,36.281 38.599,36.255 38.492,36.233 Z M 40.431,37.454 C 39.299,37.219 38.174,36.941 37.081,36.549 C 36.177,36.227 35.295,35.776 34.628,35.073 C 35.037,35.309 35.464,35.51 35.911,35.669 C 35.725,35.407 35.58,35.121 35.476,34.815 C 36.028,34.628 36.6,34.482 37.177,34.415 C 37.817,34.356 38.549,34.404 39.038,34.878 C 39.565,35.382 39.708,36.138 39.764,36.838 C 40.358,37.213 41.021,37.463 41.694,37.655 C 41.268,37.619 40.853,37.521 40.431,37.454 Z M 54.835,41.93 C 56.971,42.865 59.033,43.98 60.997,45.242 C 60.693,44.361 60.161,43.585 59.568,42.879 C 58.493,41.629 57.224,40.559 55.89,39.594 C 55.392,39.236 54.874,38.899 54.351,38.577 C 54.26,38.526 54.177,38.466 54.079,38.442 L 54.123,38.448 C 53.294,37.963 52.434,37.513 51.524,37.213 C 52.434,37.101 53.35,37.249 54.242,37.422 C 55.599,37.686 56.91,38.106 58.215,38.536 C 58.636,38.689 59.06,38.834 59.48,38.995 C 58.792,37.488 57.59,36.268 56.226,35.359 C 56.137,35.309 56.056,35.224 55.952,35.208 L 55.952,35.163 L 55.915,35.138 L 55.873,35.151 C 55.851,35.099 55.79,35.082 55.75,35.048 C 54.457,34.272 53.029,33.715 51.549,33.412 C 51.636,33.309 51.762,33.261 51.88,33.202 C 52.177,33.062 52.474,32.911 52.751,32.734 L 52.765,32.707 L 52.804,32.721 L 52.843,32.693 L 52.843,32.651 C 52.972,32.631 53.067,32.528 53.18,32.466 C 54.566,31.539 55.633,30.18 56.279,28.655 C 56.737,27.576 57.041,26.418 57.064,25.246 C 56.805,25.98 56.497,26.697 56.109,27.371 C 55.591,28.293 54.927,29.154 54.061,29.777 C 53.445,30.237 52.714,30.528 51.961,30.648 C 52.404,30.142 52.813,29.604 53.193,29.049 C 54.21,27.713 54.625,25.968 54.4,24.311 C 54.232,23.047 53.743,21.841 53.051,20.78 C 52.031,19.208 50.583,17.936 48.947,17.037 C 50.063,19.451 50.479,22.185 50.115,24.82 C 49.908,26.386 49.431,27.934 48.625,29.301 C 48.463,29.542 48.322,29.802 48.13,30.024 C 48.53,29.297 48.713,28.47 48.717,27.643 C 48.726,26.694 48.6,25.753 48.446,24.818 C 48.424,24.665 48.373,24.518 48.39,24.364 C 48.376,24.353 48.351,24.322 48.339,24.311 L 48.351,24.279 C 48.152,23.311 47.917,22.345 47.518,21.44 C 47.22,20.748 46.828,20.107 46.387,19.502 C 45.334,18.009 43.976,16.717 42.386,15.81 C 41.596,15.371 40.758,14.993 39.859,14.827 C 40.361,15.278 40.835,15.76 41.254,16.287 C 41.884,17.066 42.417,17.916 42.898,18.791 C 41.904,17.805 40.809,16.919 39.658,16.121 C 38.115,15.057 36.42,14.189 34.608,13.707 C 33.656,13.444 32.676,13.307 31.695,13.2 C 33.224,13.984 34.577,15.074 35.776,16.29 C 36.859,17.404 37.823,18.633 38.655,19.944 C 39.238,20.863 39.764,21.829 40.17,22.84 C 40.646,24.041 40.996,25.349 40.794,26.646 C 40.271,24.966 39.461,23.352 38.327,21.995 C 37.134,20.54 35.63,19.349 33.959,18.477 C 33.617,18.308 33.272,18.135 32.905,18.022 L 32.886,18.006 C 32.673,17.952 32.445,17.908 32.222,17.927 C 32.136,17.948 32.06,17.989 32.019,18.068 C 33.336,19.283 34.559,20.614 35.614,22.07 C 36.42,23.202 37.145,24.405 37.622,25.713 L 37.63,25.716 C 37.88,26.401 38.059,27.106 38.115,27.831 C 37.955,27.335 37.728,26.854 37.417,26.43 C 36.957,25.786 36.376,25.235 35.781,24.708 C 36.205,25.318 36.569,25.988 36.72,26.722 C 36.885,27.511 36.711,28.388 36.191,29.013 C 35.742,29.567 35.081,29.92 34.393,30.066 C 33.911,30.177 33.412,30.175 32.925,30.132 C 33.336,29.96 33.67,29.646 33.945,29.297 C 33.34,29.601 32.633,29.604 31.989,29.469 C 31.457,29.36 30.973,29.102 30.449,28.976 C 29.928,28.839 29.393,28.809 28.856,28.809 C 28.942,29.239 29.138,29.68 29.505,29.94 C 29.832,30.166 30.228,30.272 30.597,30.419 C 31.6,30.769 32.592,31.152 33.592,31.499 C 34.048,31.648 34.523,31.716 34.993,31.827 C 35.607,31.956 36.221,32.105 36.842,32.228 C 35.96,32.144 35.087,31.987 34.21,31.892 C 33.636,31.852 33.129,31.558 32.584,31.399 C 32.457,31.326 32.32,31.29 32.185,31.239 C 31.457,30.968 30.721,30.701 29.992,30.427 C 29.62,30.295 29.242,30.159 28.923,29.923 C 28.539,29.617 28.34,29.142 28.239,28.672 C 28.092,27.881 28.183,27.061 28.388,26.29 C 27.175,27.507 26.48,29.265 26.693,30.985 C 26.864,32.413 27.603,33.729 28.629,34.723 C 29.43,33.944 30.38,33.342 31.348,32.802 C 31.746,32.58 32.155,32.374 32.566,32.186 C 32.724,32.099 32.894,32.037 33.034,31.925 C 33.048,31.925 33.079,31.93 33.093,31.93 C 31.949,32.625 30.875,33.418 29.841,34.266 C 29.541,34.538 29.231,34.799 28.967,35.107 C 30.018,35.025 31.057,34.802 32.113,34.802 C 32.115,34.657 32.166,34.499 32.107,34.359 L 32.088,34.331 L 32.115,34.323 C 32.183,33.93 32.138,33.518 32.174,33.125 C 32.306,32.975 32.474,32.866 32.621,32.74 C 32.925,32.51 33.207,32.264 33.518,32.051 C 33.728,32.175 33.972,32.208 34.21,32.228 C 35.395,32.356 36.58,32.46 37.761,32.588 C 37.787,32.422 37.802,32.256 37.809,32.085 C 37.302,32.018 36.801,31.93 36.298,31.87 C 35.725,31.791 35.118,31.765 34.614,31.458 C 34.314,31.295 34.088,31.029 33.879,30.764 C 34.768,30.87 35.708,30.709 36.476,30.237 C 36.985,29.915 37.423,29.438 37.596,28.847 C 37.674,28.603 37.692,28.349 37.714,28.094 C 38.011,28.265 38.182,28.581 38.383,28.847 C 38.543,28.452 38.546,28.019 38.518,27.599 C 38.467,26.907 38.252,26.237 37.977,25.599 C 37.933,25.501 37.88,25.408 37.817,25.324 C 37.792,25.251 37.759,25.179 37.739,25.103 C 37.835,25.212 37.933,25.318 38.039,25.414 C 38.165,25.612 38.335,25.786 38.47,25.98 C 38.787,26.517 39.011,27.103 39.142,27.713 C 39.262,26.854 39.134,25.977 38.89,25.148 C 38.526,23.957 37.915,22.848 37.117,21.893 C 38.274,23.073 39.262,24.451 39.779,26.027 C 40.207,27.242 40.251,28.592 39.859,29.825 C 40.884,28.525 41.478,26.854 41.335,25.191 C 41.265,24.257 40.916,23.377 40.61,22.496 C 40.535,22.269 40.428,22.044 40.346,21.813 C 40.929,22.194 41.472,22.658 41.875,23.226 C 42.482,24.05 42.827,25.036 42.977,26.041 C 43.405,25.191 43.722,24.24 43.621,23.282 C 43.497,22.246 42.906,21.339 42.262,20.547 C 42.282,20.521 42.307,20.482 42.321,20.456 C 42.965,21.092 43.562,21.781 44.027,22.566 C 44.85,23.916 45.374,25.464 45.438,27.05 C 45.475,27.677 45.405,28.304 45.304,28.92 C 45.847,28.125 46.233,27.22 46.415,26.274 C 46.67,24.845 46.52,23.367 46.11,21.983 C 45.992,21.611 45.88,21.235 45.704,20.886 C 45.659,20.78 45.587,20.671 45.589,20.555 C 45.62,20.577 45.648,20.603 45.67,20.627 C 46.264,21.588 46.788,22.594 47.222,23.636 L 47.22,23.647 C 47.713,24.871 48.015,26.184 48.015,27.511 C 48.082,28.749 47.735,30.015 47.015,31.026 C 48.281,30.676 49.64,30.517 50.924,30.856 C 50.28,30.937 49.622,30.993 49.007,31.22 C 47.956,31.58 47.08,32.29 46.298,33.051 C 47.315,32.864 48.339,32.69 49.372,32.628 C 49.64,32.62 49.908,32.603 50.177,32.636 C 50.029,32.701 49.858,32.683 49.706,32.727 C 48.773,32.923 47.864,33.233 47.009,33.651 C 46.363,33.953 45.772,34.351 45.136,34.669 C 44.809,34.83 44.475,34.976 44.132,35.103 C 43.651,35.269 43.155,35.384 42.654,35.468 C 42.47,35.496 42.288,35.507 42.103,35.533 C 42.343,35.591 42.593,35.585 42.836,35.602 C 43.475,35.622 44.111,35.664 44.75,35.689 C 45.791,35.779 46.835,35.927 47.819,36.297 C 48.044,36.361 48.244,36.499 48.475,36.54 C 48.032,36.138 47.553,35.776 47.04,35.457 C 46.914,35.364 46.762,35.294 46.673,35.163 C 46.74,35.165 46.808,35.183 46.866,35.213 C 47.297,35.437 47.754,35.611 48.177,35.848 C 49.541,36.583 50.765,37.591 51.684,38.843 C 51.947,39.205 52.174,39.591 52.394,39.981 C 52.429,40.042 52.452,40.105 52.465,40.171 C 52.099,39.815 51.728,39.462 51.3,39.179 C 50.583,38.697 49.798,38.319 48.97,38.072 C 47.97,37.768 46.923,37.636 45.879,37.566 C 46.327,37.79 46.797,37.975 47.225,38.239 C 47.685,38.507 48.107,38.834 48.511,39.179 C 48.561,39.216 48.586,39.277 48.595,39.339 C 47.901,38.919 47.11,38.687 46.32,38.521 C 45.718,38.393 45.107,38.334 44.497,38.297 C 44.847,38.485 45.158,38.728 45.444,39 C 45.556,39.107 45.668,39.213 45.743,39.349 C 45.069,39.14 44.399,38.924 43.709,38.748 C 42.714,38.485 41.691,38.319 40.658,38.283 C 40.333,38.283 40.027,38.182 39.716,38.092 C 39.008,37.885 38.308,37.636 37.61,37.392 C 36.63,36.992 35.673,36.535 34.725,36.069 C 34.488,35.973 34.266,35.838 34.02,35.774 C 34.519,36.264 35.062,36.709 35.63,37.123 C 36.017,37.412 36.376,37.74 36.695,38.106 C 36.79,38.23 36.907,38.348 36.95,38.501 C 36.055,38.014 35.123,37.584 34.186,37.179 C 32.662,36.549 31.093,35.992 29.46,35.709 C 30.224,36.804 31.13,37.805 32.171,38.644 C 34.118,40.213 36.398,41.372 38.809,42.044 C 40.873,42.632 43.004,42.918 45.133,43.142 C 45.838,43.215 46.544,43.274 47.244,43.371 C 47.692,43.434 48.136,43.523 48.586,43.555 L 48.499,43.599 C 48.572,43.592 48.645,43.587 48.717,43.579 C 48.628,43.492 48.485,43.537 48.376,43.5 C 45.746,42.96 43.125,42.268 40.694,41.109 C 40.041,40.801 39.422,40.442 38.8,40.081 C 39.084,40.128 39.349,40.249 39.626,40.323 C 40.654,40.624 41.691,40.927 42.752,41.095 C 44.159,41.392 45.596,41.414 47.015,41.581 C 47.236,41.602 47.441,41.677 47.648,41.753 C 48.365,42.134 49.101,42.464 49.821,42.834 C 50.651,43.254 51.482,43.674 52.236,44.217 C 52.613,44.484 52.96,44.794 53.328,45.08 C 53.277,44.672 53.087,44.293 52.875,43.948 C 52.843,43.907 52.821,43.853 52.77,43.831 L 52.784,43.792 L 52.758,43.75 L 52.714,43.75 C 52.699,43.661 52.625,43.585 52.577,43.507 C 52.087,42.841 51.563,42.204 51.014,41.59 C 50.737,41.299 50.464,41 50.138,40.758 L 50.138,40.75 C 49.816,40.47 49.463,40.224 49.101,40.005 C 50.045,40.276 50.997,40.532 51.933,40.842 C 52.92,41.154 53.88,41.534 54.835,41.93 L 54.835,41.93 Z" fill="#ffffff" marker-start="none" marker-end="none"/>
     <path d="M 116.856,40.462 C 116.687,48.189 112.6,53.504 103.195,53.504 C 98.441,53.504 94.632,52.219 91.946,49.813 C 88.252,46.399 86.404,41.581 86.404,35.536 C 86.404,30.779 87.468,26.859 89.706,23.558 C 92.898,18.914 97.709,17.121 103.309,17.121 C 111.816,17.121 116.463,21.095 118.648,27.812 L 119.261,27.31 C 117.303,19.751 110.475,15.497 101.967,15.497 C 95.024,15.497 89.765,17.734 86.516,21.432 C 83.827,24.509 82.209,29.154 82.209,34.586 C 82.209,41.751 84.894,46.565 89.033,49.926 C 92.334,52.667 96.87,54.457 103.309,54.457 C 109.694,54.457 114.394,52.107 116.631,49.813 L 117.698,53.395 L 118.312,53.171 C 117.698,49.701 117.419,43.539 117.53,40.633 L 116.856,40.462 Z" fill="#dc2134" fill-rule="nonzero" marker-start="none" marker-end="none"/>
     <path d="M 128.613,42.926 C 128.613,47.072 128.613,48.41 128.554,50.374 C 128.498,52.499 126.988,52.611 122.955,52.835 L 122.955,53.511 C 124.355,53.451 127.658,53.279 130.064,53.279 C 132.415,53.279 136.113,53.511 137.678,53.511 L 137.735,52.835 C 133.816,52.893 132.643,52.332 132.415,50.541 C 132.306,49.364 132.195,47.072 132.195,43.319 L 132.195,28.374 C 132.195,23.617 132.248,21.261 132.415,19.414 C 132.587,17.623 134.32,17.289 138.015,17.121 L 138.015,16.445 C 135.777,16.502 131.915,16.673 130.01,16.673 C 128.276,16.673 124.412,16.558 122.901,16.445 L 122.901,17.121 C 126.26,17.233 128.22,17.734 128.332,19.243 C 128.386,20.588 128.613,22.157 128.613,28.374 L 128.613,42.926 Z" fill="#dc2134" fill-rule="nonzero" marker-start="none" marker-end="none"/>
     <path d="M 140.196,53.504 C 141.316,53.504 144.621,53.279 147.871,53.279 L 158.672,53.279 C 163.43,53.279 167.181,53.617 168.018,53.9 C 167.906,52.387 167.629,47.349 167.906,44.831 L 167.181,44.831 C 166.957,46.506 166.673,48.186 166.228,49.645 C 165.612,51.6 165.052,52.275 157.272,52.275 L 150.553,52.275 C 149.828,52.275 149.659,52.104 149.604,51.375 C 149.488,49.474 149.377,47.013 149.377,43.095 L 149.377,36.376 C 149.996,36.264 153.857,36.264 154.643,36.264 C 162.419,36.264 162.978,37.161 163.543,41.358 L 164.155,41.358 C 163.82,37.107 163.82,33.298 164.103,29.154 L 163.43,29.154 C 163.035,34.695 162.364,35.199 154.643,35.199 C 153.41,35.199 149.996,35.199 149.377,35.032 L 149.377,29.154 C 149.377,26.189 149.433,21.319 149.604,19.079 C 149.659,17.849 150.5,17.623 157.721,17.623 C 165.668,17.623 167.181,18.183 168.41,19.694 C 169.533,20.981 170.427,23.781 171.044,26.075 L 171.658,26.075 C 171.658,24.955 170.258,18.127 169.922,16.337 C 168.466,16.558 164.493,16.673 154.413,16.673 L 147.643,16.673 C 144.845,16.673 140.981,16.445 139.415,16.445 L 139.47,17.121 L 143.722,17.566 C 144.905,17.679 145.459,17.849 145.626,20.423 C 145.794,22.885 145.794,25.963 145.794,29.099 L 145.794,40.073 C 145.794,44.996 145.739,48.746 145.626,50.651 C 145.573,51.995 145.069,52.387 143.217,52.555 L 140.196,52.835 L 140.196,53.504 Z" fill="#dc2134" fill-rule="nonzero" marker-start="none" marker-end="none"/>
     <path d="M 89.16,9.545 C 89.125,10.977 88.37,11.965 86.621,11.965 C 85.739,11.965 85.031,11.73 84.535,11.279 C 83.847,10.646 83.504,9.753 83.504,8.629 C 83.504,7.745 83.701,7.019 84.118,6.406 C 84.709,5.543 85.603,5.21 86.641,5.21 C 88.221,5.21 89.084,5.947 89.493,7.195 L 89.604,7.1 C 89.24,5.7 87.974,4.907 86.395,4.907 C 85.104,4.907 84.126,5.322 83.525,6.007 C 83.028,6.581 82.724,7.445 82.724,8.453 C 82.724,9.783 83.222,10.677 83.992,11.298 C 84.608,11.808 85.452,12.142 86.641,12.142 C 87.829,12.142 88.703,11.707 89.115,11.279 L 89.313,11.944 L 89.429,11.904 C 89.313,11.26 89.261,10.117 89.283,9.577 L 89.16,9.545 Z" fill="#e20011" fill-rule="nonzero" marker-start="none" marker-end="none"/>
     <path d="M 91.206,6.314 C 91.206,5.711 91.568,5.305 92.184,5.305 C 93.035,5.305 93.492,5.815 93.691,6.322 C 93.744,6.448 93.763,6.636 93.763,6.739 L 93.776,7.996 C 93.42,7.817 92.35,7.415 91.882,7.217 C 91.548,7.08 91.206,6.916 91.206,6.322 L 91.206,6.314 Z M 93.776,8.382 C 93.776,8.859 93.481,9.481 92.599,9.481 C 91.644,9.481 91.302,8.974 91.302,8.486 C 91.302,8.349 91.332,8.215 91.341,8.153 C 91.352,8.088 91.302,8.027 91.268,8.008 C 91.196,7.952 91.114,7.944 91.029,7.944 C 90.865,7.944 90.728,8.077 90.728,8.33 C 90.728,8.871 91.448,9.638 92.71,9.638 C 93.702,9.638 94.063,9.231 94.221,8.993 C 94.305,8.859 94.357,8.629 94.357,8.433 L 94.357,5.885 C 94.357,5.324 94.542,5.283 94.699,5.283 C 94.957,5.283 95.122,5.532 95.247,5.98 L 95.377,5.938 C 95.247,5.344 94.965,4.982 94.45,4.982 C 93.856,4.982 93.721,5.437 93.721,5.952 C 93.111,5.291 92.43,4.982 91.831,4.982 C 90.946,4.982 90.478,5.512 90.478,6.24 C 90.478,6.624 90.625,7.011 91.168,7.185 C 92.05,7.5 93.515,7.989 93.776,8.153 L 93.776,8.382 Z" fill="#e20011" fill-rule="nonzero" marker-start="none" marker-end="none"/>
     <path d="M 96.341,7.996 C 96.341,8.638 96.29,9.058 96.259,9.181 C 96.239,9.243 96.195,9.297 96.018,9.297 L 95.604,9.307 L 95.637,9.42 C 95.96,9.42 96.562,9.481 96.85,9.595 L 96.87,9.587 C 96.892,9.461 96.922,8.672 96.922,8.422 L 96.946,8.422 C 97.226,9.048 97.64,9.638 98.391,9.638 C 98.824,9.638 99.044,9.318 99.044,9.058 C 99.044,8.733 98.856,8.618 98.721,8.618 C 98.598,8.618 98.517,8.683 98.502,8.783 C 98.502,9.108 98.401,9.346 98.035,9.346 C 97.587,9.346 97.152,8.756 96.987,7.996 C 96.957,7.851 96.946,7.685 96.946,7.455 C 96.946,6.157 96.946,5.781 96.965,5.5 C 96.976,5.291 97.026,5.243 97.9,5.21 L 97.869,5.087 C 97.57,5.087 97.08,5.132 96.665,5.132 C 96.187,5.132 95.945,5.087 95.584,5.087 L 95.615,5.21 C 96.166,5.243 96.27,5.283 96.298,5.473 C 96.332,5.662 96.341,6.135 96.341,6.935 L 96.341,7.996 Z" fill="#e20011" fill-rule="nonzero" marker-start="none" marker-end="none"/>
     <path d="M 101.717,9.473 C 100.667,9.473 100.208,8.744 100.115,7.644 L 101.415,7.644 C 102.205,7.644 102.65,7.685 102.857,7.727 C 103.026,7.769 103.068,7.874 103.068,8.027 C 103.068,8.828 102.65,9.473 101.729,9.473 L 101.717,9.473 Z M 101.687,4.982 C 100.824,4.982 100.222,5.229 99.827,5.772 C 99.555,6.126 99.398,6.655 99.398,7.238 C 99.398,8.638 100.28,9.638 101.78,9.638 C 103.441,9.638 103.709,8.382 103.709,7.989 C 103.709,7.769 103.661,7.632 103.512,7.592 C 103.348,7.537 102.779,7.478 101.936,7.465 C 101.426,7.455 100.564,7.465 100.093,7.465 C 100.077,6.935 100.242,6.322 100.488,5.959 C 100.802,5.524 101.238,5.283 101.875,5.283 C 102.953,5.283 103.339,5.781 103.639,6.467 L 103.753,6.406 C 103.393,5.473 102.714,4.982 101.687,4.982 L 101.687,4.982 Z" fill="#e20011" fill-rule="nonzero" marker-start="none" marker-end="none"/>
     <path d="M 106.874,9.473 C 105.823,9.473 105.364,8.744 105.272,7.644 L 106.571,7.644 C 107.36,7.644 107.809,7.685 108.013,7.727 C 108.181,7.769 108.224,7.874 108.224,8.027 C 108.224,8.828 107.809,9.473 106.885,9.473 L 106.874,9.473 Z M 106.84,4.982 C 105.977,4.982 105.375,5.229 104.981,5.772 C 104.712,6.126 104.555,6.655 104.555,7.238 C 104.555,8.638 105.438,9.638 106.933,9.638 C 108.599,9.638 108.868,8.382 108.868,7.989 C 108.868,7.769 108.815,7.632 108.669,7.592 C 108.504,7.537 107.932,7.478 107.089,7.465 C 106.58,7.455 105.72,7.465 105.252,7.465 C 105.229,6.935 105.395,6.322 105.644,5.959 C 105.956,5.524 106.394,5.283 107.028,5.283 C 108.109,5.283 108.492,5.781 108.795,6.467 L 108.907,6.406 C 108.549,5.473 107.874,4.982 106.84,4.982 L 106.84,4.982 Z" fill="#e20011" fill-rule="nonzero" marker-start="none" marker-end="none"/>
     <path d="M 110.201,7.996 C 110.201,8.638 110.148,9.058 110.117,9.181 C 110.097,9.243 110.052,9.297 109.879,9.297 L 109.464,9.307 L 109.492,9.42 C 109.814,9.42 110.422,9.481 110.71,9.595 L 110.728,9.587 C 110.75,9.461 110.784,8.672 110.784,8.422 L 110.803,8.422 C 111.085,9.048 111.497,9.638 112.25,9.638 C 112.683,9.638 112.903,9.318 112.903,9.058 C 112.903,8.733 112.717,8.618 112.578,8.618 C 112.459,8.618 112.371,8.683 112.364,8.783 C 112.364,9.108 112.259,9.346 111.893,9.346 C 111.447,9.346 111.011,8.756 110.845,7.996 C 110.814,7.851 110.803,7.685 110.803,7.455 C 110.803,6.157 110.803,5.781 110.823,5.5 C 110.834,5.291 110.884,5.243 111.761,5.21 L 111.724,5.087 C 111.427,5.087 110.937,5.132 110.523,5.132 C 110.044,5.132 109.806,5.087 109.441,5.087 L 109.473,5.21 C 110.025,5.243 110.129,5.283 110.159,5.473 C 110.189,5.662 110.201,6.135 110.201,6.935 L 110.201,7.996 Z" fill="#e20011" fill-rule="nonzero" marker-start="none" marker-end="none"/>
     <path d="M 116.304,11.757 C 116.552,11.757 116.676,11.582 116.676,11.363 C 116.676,11.113 116.459,10.948 116.24,10.948 C 116.082,10.948 115.875,11.071 115.875,11.33 C 115.875,11.612 116.116,11.757 116.289,11.757 L 116.304,11.757 Z M 117.247,5.087 C 116.998,5.087 116.633,5.125 116.231,5.125 C 115.855,5.125 115.584,5.087 115.189,5.087 L 115.228,5.21 C 115.845,5.243 115.915,5.302 115.926,5.481 C 115.951,5.691 115.99,6.268 115.99,6.708 L 115.99,7.893 C 115.99,8.733 115.971,9.086 115.937,9.223 C 115.915,9.315 115.769,9.355 115.281,9.327 L 115.334,9.45 C 115.676,9.461 116.304,9.526 116.645,9.626 C 116.612,9.274 116.592,8.599 116.592,7.878 L 116.592,6.708 C 116.592,5.996 116.592,5.7 116.612,5.5 C 116.633,5.283 116.695,5.229 117.247,5.21 L 117.247,5.087 Z" fill="#e20011" fill-rule="nonzero" marker-start="none" marker-end="none"/>
     <path d="M 117.78,5.21 C 118.34,5.235 118.465,5.246 118.475,5.481 C 118.499,5.772 118.526,5.959 118.526,6.739 L 118.526,7.901 C 118.526,8.445 118.499,8.952 118.475,9.192 C 118.465,9.338 118.424,9.338 117.79,9.338 L 117.838,9.441 C 118.267,9.441 118.704,9.492 119.107,9.595 C 119.107,9.361 119.13,8.798 119.13,8.602 C 119.558,9.058 120.221,9.641 121.104,9.641 C 121.947,9.641 122.352,9.223 122.488,8.943 C 122.582,8.756 122.611,8.548 122.611,8.288 L 122.611,5.504 C 122.611,5.271 122.675,5.263 123.339,5.21 L 123.297,5.087 C 123.081,5.087 122.633,5.132 122.239,5.132 C 121.891,5.132 121.586,5.087 121.249,5.087 L 121.249,5.21 C 121.802,5.235 121.916,5.297 121.935,5.481 C 121.967,5.772 122.008,6.229 122.008,7.217 C 122.008,8.514 121.977,8.618 121.854,8.828 C 121.665,9.161 121.323,9.327 120.843,9.327 C 120.057,9.327 119.547,8.952 119.243,8.382 C 119.14,8.183 119.13,8.067 119.13,7.853 L 119.13,6.731 C 119.13,6.041 119.151,5.627 119.172,5.45 C 119.202,5.283 119.286,5.21 119.919,5.21 L 119.9,5.087 C 119.608,5.087 119.14,5.132 118.85,5.132 C 118.443,5.14 118.132,5.087 117.78,5.087 L 117.78,5.21 Z" fill="#e20011" fill-rule="nonzero" marker-start="none" marker-end="none"/>
     <path d="M 125.742,11.968 C 125.946,11.968 126.562,11.926 127.164,11.926 L 129.172,11.926 C 130.052,11.926 130.753,11.988 130.906,12.037 C 130.887,11.761 130.833,10.827 130.887,10.357 L 130.753,10.357 C 130.71,10.668 130.658,10.978 130.573,11.248 C 130.458,11.614 130.357,11.739 128.913,11.739 L 127.663,11.739 C 127.526,11.739 127.497,11.707 127.486,11.572 C 127.467,11.22 127.447,10.76 127.447,10.035 L 127.447,8.783 C 127.562,8.764 128.276,8.764 128.425,8.764 C 129.867,8.764 129.971,8.929 130.077,9.71 L 130.189,9.71 C 130.128,8.921 130.128,8.215 130.177,7.445 L 130.052,7.445 C 129.982,8.478 129.856,8.568 128.425,8.568 C 128.195,8.568 127.562,8.568 127.447,8.534 L 127.447,7.445 C 127.447,6.896 127.456,5.992 127.486,5.573 C 127.497,5.347 127.655,5.305 128.99,5.305 C 130.47,5.305 130.753,5.408 130.978,5.691 C 131.188,5.929 131.352,6.448 131.47,6.875 L 131.58,6.875 C 131.58,6.666 131.321,5.397 131.259,5.065 C 130.987,5.109 130.251,5.132 128.383,5.132 L 127.122,5.132 C 126.605,5.132 125.887,5.087 125.593,5.087 L 125.607,5.21 L 126.397,5.297 C 126.615,5.316 126.719,5.347 126.75,5.826 C 126.781,6.283 126.781,6.853 126.781,7.436 L 126.781,9.473 C 126.781,10.388 126.769,11.083 126.75,11.436 C 126.739,11.688 126.644,11.761 126.302,11.789 L 125.742,11.842 L 125.742,11.968 Z" fill="#e20011" fill-rule="nonzero" marker-start="none" marker-end="none"/>
     <path d="M 132.071,5.21 C 132.634,5.235 132.757,5.246 132.769,5.481 C 132.787,5.772 132.822,5.959 132.822,6.739 L 132.822,7.901 C 132.822,8.445 132.787,8.952 132.769,9.192 C 132.757,9.338 132.716,9.338 132.082,9.338 L 132.135,9.441 C 132.561,9.441 132.998,9.492 133.402,9.595 C 133.402,9.361 133.422,8.798 133.422,8.602 C 133.849,9.058 134.515,9.641 135.398,9.641 C 136.242,9.641 136.644,9.223 136.78,8.943 C 136.874,8.756 136.905,8.548 136.905,8.288 L 136.905,5.504 C 136.905,5.271 136.967,5.263 137.634,5.21 L 137.592,5.087 C 137.37,5.087 136.927,5.132 136.533,5.132 C 136.188,5.132 135.878,5.087 135.548,5.087 L 135.548,5.21 C 136.093,5.235 136.208,5.297 136.228,5.481 C 136.261,5.772 136.302,6.229 136.302,7.217 C 136.302,8.514 136.272,8.618 136.149,8.828 C 135.961,9.161 135.62,9.327 135.138,9.327 C 134.349,9.327 133.838,8.952 133.539,8.382 C 133.435,8.183 133.422,8.067 133.422,7.853 L 133.422,6.731 C 133.422,6.041 133.444,5.627 133.463,5.45 C 133.497,5.283 133.578,5.21 134.213,5.21 L 134.195,5.087 C 133.9,5.087 133.435,5.132 133.144,5.132 C 132.738,5.14 132.424,5.087 132.071,5.087 L 132.071,5.21 Z" fill="#e20011" fill-rule="nonzero" marker-start="none" marker-end="none"/>
     <path d="M 140.368,9.461 C 139.524,9.461 139.194,8.878 139.194,8.019 C 139.194,7.342 139.484,6.501 140.356,6.501 C 141.199,6.501 141.523,7.125 141.523,8.008 C 141.523,8.808 141.252,9.461 140.378,9.461 L 140.368,9.461 Z M 139.306,4.566 C 138.924,4.473 138.599,4.243 138.599,3.683 C 138.599,2.695 139.628,2.46 140.398,2.46 C 141.689,2.46 142.486,3.224 142.486,4.025 C 142.486,4.669 141.905,4.868 141.559,4.868 C 140.221,4.868 139.661,4.879 139.32,4.879 C 139.018,4.879 138.599,4.949 138.372,5.201 C 138.216,5.378 138.143,5.551 138.143,5.826 C 138.143,6.249 138.536,6.677 138.894,6.874 C 138.63,7.125 138.507,7.548 138.507,7.893 C 138.507,9.015 139.359,9.641 140.462,9.641 C 141.136,9.641 141.501,9.4 141.646,9.318 C 142.063,9.626 142.372,9.795 142.633,9.795 C 142.901,9.795 143.051,9.626 143.051,9.512 C 142.996,9.391 142.851,9.231 142.767,9.192 C 142.686,9.274 142.518,9.361 142.229,9.361 C 142.03,9.361 141.893,9.285 141.748,9.223 C 142.063,8.921 142.229,8.478 142.229,8.039 C 142.229,6.904 141.353,6.356 140.356,6.356 C 139.807,6.356 139.327,6.489 139.006,6.731 C 138.665,6.647 138.465,6.314 138.465,6.01 C 138.465,5.616 138.798,5.481 139.098,5.481 C 140.18,5.481 140.857,5.504 141.533,5.504 C 141.935,5.504 142.238,5.408 142.467,5.243 C 142.778,5.003 142.924,4.684 142.924,4.309 C 142.924,2.782 141.229,2.249 140.17,2.249 C 138.787,2.249 138.085,2.801 138.085,3.578 C 138.085,3.871 138.185,4.066 138.415,4.254 C 138.571,4.389 138.901,4.574 139.244,4.669 L 139.306,4.566 Z" fill="#e20011" fill-rule="nonzero" marker-start="none" marker-end="none"/>
     <path d="M 144.327,11.757 C 144.577,11.757 144.703,11.582 144.703,11.363 C 144.703,11.113 144.485,10.948 144.265,10.948 C 144.111,10.948 143.901,11.071 143.901,11.33 C 143.901,11.612 144.139,11.757 144.319,11.757 L 144.327,11.757 Z M 145.273,5.087 C 145.024,5.087 144.66,5.125 144.257,5.125 C 143.882,5.125 143.61,5.087 143.215,5.087 L 143.258,5.21 C 143.87,5.243 143.943,5.302 143.955,5.481 C 143.973,5.691 144.016,6.268 144.016,6.708 L 144.016,7.893 C 144.016,8.733 143.997,9.086 143.966,9.223 C 143.943,9.315 143.798,9.355 143.308,9.327 L 143.361,9.45 C 143.703,9.461 144.327,9.526 144.669,9.626 C 144.641,9.274 144.621,8.599 144.621,7.878 L 144.621,6.708 C 144.621,5.996 144.621,5.7 144.641,5.5 C 144.66,5.283 144.721,5.229 145.273,5.21 L 145.273,5.087 Z" fill="#e20011" fill-rule="nonzero" marker-start="none" marker-end="none"/>
     <path d="M 148.228,9.473 C 147.177,9.473 146.722,8.744 146.626,7.644 L 147.926,7.644 C 148.716,7.644 149.163,7.685 149.371,7.727 C 149.536,7.769 149.578,7.874 149.578,8.027 C 149.578,8.828 149.163,9.473 148.236,9.473 L 148.228,9.473 Z M 148.195,4.982 C 147.332,4.982 146.73,5.229 146.334,5.772 C 146.067,6.126 145.909,6.655 145.909,7.238 C 145.909,8.638 146.791,9.638 148.287,9.638 C 149.954,9.638 150.222,8.382 150.222,7.989 C 150.222,7.769 150.169,7.632 150.024,7.592 C 149.858,7.537 149.287,7.478 148.445,7.465 C 147.934,7.455 147.074,7.465 146.606,7.465 C 146.584,6.935 146.749,6.322 146.999,5.959 C 147.31,5.524 147.747,5.283 148.383,5.283 C 149.463,5.283 149.847,5.781 150.15,6.467 L 150.261,6.406 C 149.9,5.473 149.225,4.982 148.195,4.982 L 148.195,4.982 Z" fill="#e20011" fill-rule="nonzero" marker-start="none" marker-end="none"/>
     <path d="M 153.382,9.473 C 152.334,9.473 151.875,8.744 151.783,7.644 L 153.079,7.644 C 153.869,7.644 154.317,7.685 154.527,7.727 C 154.695,7.769 154.731,7.874 154.731,8.027 C 154.731,8.828 154.317,9.473 153.393,9.473 L 153.382,9.473 Z M 153.35,4.982 C 152.489,4.982 151.886,5.229 151.492,5.772 C 151.22,6.126 151.065,6.655 151.065,7.238 C 151.065,8.638 151.95,9.638 153.444,9.638 C 155.107,9.638 155.378,8.382 155.378,7.989 C 155.378,7.769 155.325,7.632 155.18,7.592 C 155.015,7.537 154.443,7.478 153.6,7.465 C 153.093,7.455 152.231,7.465 151.762,7.465 C 151.74,6.935 151.906,6.322 152.155,5.959 C 152.466,5.524 152.905,5.283 153.539,5.283 C 154.619,5.283 155.003,5.781 155.305,6.467 L 155.421,6.406 C 155.056,5.473 154.381,4.982 153.35,4.982 L 153.35,4.982 Z" fill="#e20011" fill-rule="nonzero" marker-start="none" marker-end="none"/>
     <path d="M 156.709,7.996 C 156.709,8.638 156.658,9.058 156.628,9.181 C 156.607,9.243 156.567,9.297 156.386,9.297 L 155.972,9.307 L 156.003,9.42 C 156.328,9.42 156.93,9.481 157.218,9.595 L 157.243,9.587 C 157.264,9.461 157.291,8.672 157.291,8.422 L 157.313,8.422 C 157.594,9.048 158.008,9.638 158.759,9.638 C 159.193,9.638 159.412,9.318 159.412,9.058 C 159.412,8.733 159.224,8.618 159.089,8.618 C 158.966,8.618 158.885,8.683 158.872,8.783 C 158.872,9.108 158.769,9.346 158.404,9.346 C 157.96,9.346 157.521,8.756 157.356,7.996 C 157.325,7.851 157.313,7.685 157.313,7.455 C 157.313,6.157 157.313,5.781 157.333,5.5 C 157.345,5.291 157.401,5.243 158.265,5.21 L 158.24,5.087 C 157.938,5.087 157.449,5.132 157.033,5.132 C 156.555,5.132 156.313,5.087 155.952,5.087 L 155.983,5.21 C 156.535,5.243 156.639,5.283 156.666,5.473 C 156.7,5.662 156.709,6.135 156.709,6.935 L 156.709,7.996 Z" fill="#e20011" fill-rule="nonzero" marker-start="none" marker-end="none"/>
     <path d="M 160.887,11.757 C 161.139,11.757 161.265,11.582 161.265,11.363 C 161.265,11.113 161.044,10.948 160.827,10.948 C 160.669,10.948 160.462,11.071 160.462,11.33 C 160.462,11.612 160.702,11.757 160.879,11.757 L 160.887,11.757 Z M 161.834,5.087 C 161.588,5.087 161.22,5.125 160.817,5.125 C 160.442,5.125 160.17,5.087 159.778,5.087 L 159.817,5.21 C 160.43,5.243 160.503,5.302 160.515,5.481 C 160.537,5.691 160.58,6.268 160.58,6.708 L 160.58,7.893 C 160.58,8.733 160.557,9.086 160.526,9.223 C 160.503,9.315 160.358,9.355 159.87,9.327 L 159.924,9.45 C 160.265,9.461 160.887,9.526 161.232,9.626 C 161.199,9.274 161.179,8.599 161.179,7.878 L 161.179,6.708 C 161.179,5.996 161.179,5.7 161.199,5.5 C 161.22,5.283 161.285,5.229 161.834,5.21 L 161.834,5.087 Z" fill="#e20011" fill-rule="nonzero" marker-start="none" marker-end="none"/>
     <path d="M 162.364,5.21 C 162.923,5.235 163.052,5.246 163.061,5.481 C 163.083,5.772 163.114,5.959 163.114,6.739 L 163.114,7.901 C 163.114,8.445 163.083,8.952 163.061,9.192 C 163.052,9.338 163.011,9.338 162.374,9.338 L 162.427,9.441 C 162.85,9.441 163.291,9.492 163.694,9.595 C 163.694,9.361 163.714,8.798 163.714,8.602 C 164.142,9.058 164.808,9.641 165.691,9.641 C 166.53,9.641 166.94,9.223 167.073,8.943 C 167.166,8.756 167.198,8.548 167.198,8.288 L 167.198,5.504 C 167.198,5.271 167.261,5.263 167.926,5.21 L 167.883,5.087 C 167.665,5.087 167.216,5.132 166.823,5.132 C 166.481,5.132 166.17,5.087 165.835,5.087 L 165.835,5.21 C 166.388,5.235 166.5,5.297 166.522,5.481 C 166.553,5.772 166.595,6.229 166.595,7.217 C 166.595,8.514 166.564,8.618 166.438,8.828 C 166.25,9.161 165.911,9.327 165.43,9.327 C 164.64,9.327 164.131,8.952 163.83,8.382 C 163.727,8.183 163.714,8.067 163.714,7.853 L 163.714,6.731 C 163.714,6.041 163.735,5.627 163.758,5.45 C 163.789,5.283 163.873,5.21 164.503,5.21 L 164.483,5.087 C 164.195,5.087 163.727,5.132 163.437,5.132 C 163.03,5.14 162.717,5.087 162.364,5.087 L 162.364,5.21 Z" fill="#e20011" fill-rule="nonzero" marker-start="none" marker-end="none"/>
     <path d="M 170.659,9.461 C 169.819,9.461 169.485,8.878 169.485,8.019 C 169.485,7.342 169.776,6.501 170.647,6.501 C 171.49,6.501 171.812,7.125 171.812,8.008 C 171.812,8.808 171.545,9.461 170.67,9.461 L 170.659,9.461 Z M 169.597,4.566 C 169.217,4.473 168.894,4.243 168.894,3.683 C 168.894,2.695 169.922,2.46 170.693,2.46 C 171.981,2.46 172.779,3.224 172.779,4.025 C 172.779,4.669 172.197,4.868 171.855,4.868 C 170.514,4.868 169.952,4.879 169.611,4.879 C 169.31,4.879 168.894,4.949 168.662,5.201 C 168.511,5.378 168.435,5.551 168.435,5.826 C 168.435,6.249 168.827,6.677 169.184,6.874 C 168.925,7.125 168.798,7.548 168.798,7.893 C 168.798,9.015 169.651,9.641 170.755,9.641 C 171.429,9.641 171.794,9.4 171.938,9.318 C 172.356,9.626 172.666,9.795 172.925,9.795 C 173.195,9.795 173.342,9.626 173.342,9.512 C 173.288,9.391 173.143,9.231 173.062,9.192 C 172.975,9.274 172.809,9.361 172.522,9.361 C 172.32,9.361 172.184,9.285 172.04,9.223 C 172.356,8.921 172.522,8.478 172.522,8.039 C 172.522,6.904 171.648,6.356 170.647,6.356 C 170.099,6.356 169.62,6.489 169.297,6.731 C 168.956,6.647 168.761,6.314 168.761,6.01 C 168.761,5.616 169.091,5.481 169.393,5.481 C 170.474,5.481 171.149,5.504 171.824,5.504 C 172.227,5.504 172.529,5.408 172.759,5.243 C 173.07,5.003 173.219,4.684 173.219,4.309 C 173.219,2.782 171.522,2.249 170.461,2.249 C 169.079,2.249 168.374,2.801 168.374,3.578 C 168.374,3.871 168.477,4.066 168.706,4.254 C 168.861,4.389 169.194,4.574 169.536,4.669 L 169.597,4.566 Z" fill="#e20011" fill-rule="nonzero" marker-start="none" marker-end="none"/>
    </g>
   </g>
   <g id="Optional Content Layer from PDF"/>
  </g>
 </g>
</svg>
