<?xml version="1.0" standalone="no"?>
<!DOCTYPE svg PUBLIC "-//W3C//DTD SVG 1.1//EN" "http://www.w3.org/Graphics/SVG/1.1/DTD/svg11.dtd">
<!--Generator: Xara Designer (www.xara.com), SVG filter version: 4.0.0.1-->
<svg stroke-width="0.501" stroke-linejoin="bevel" fill-rule="evenodd" xmlns:xlink="http://www.w3.org/1999/xlink" xmlns="http://www.w3.org/2000/svg" version="1.1" overflow="visible" width="150pt" height="63.75pt" viewBox="0 0 150 63.75">
 <defs>
  <marker id="DefaultArrow2" markerUnits="strokeWidth" viewBox="0 0 1 1" markerWidth="1" markerHeight="1" overflow="visible" orient="auto">
   <!-- REF_ARROW_STRAIGHT (-2) -->
   <g transform="scale(0.0092592592)">
    <!-- 1/108 -->
    <path d="M -9 54 L -9 -54 L 117 0 z"/>
   </g>
  </marker>
  <marker id="DefaultArrow3" markerUnits="strokeWidth" viewBox="0 0 1 1" markerWidth="1" markerHeight="1" overflow="visible" orient="auto">
   <!-- REF_ARROW_ANGLED -->
   <g transform="scale(0.0092592592)">
    <path d="M -27 54 L -9 0 L -27 -54 L 135 0 z"/>
   </g>
  </marker>
  <marker id="DefaultArrow4" markerUnits="strokeWidth" viewBox="0 0 1 1" markerWidth="1" markerHeight="1" overflow="visible" orient="auto">
   <!-- REF_ARROW_ROUNDED -->
   <g transform="scale(0.0092592592)">
    <path d="M -9,0 L -9,-45 C -9,-51.708 2.808,-56.580 9,-54 L 117,-9 C 120.916,-7.369 126.000,-4.242 126,0 C 126,4.242 120.916,7.369 117,9 L 9,54 C 2.808,56.580 -9,51.708 -9,45 z"/>
   </g>
  </marker>
  <marker id="DefaultArrow5" markerUnits="strokeWidth" viewBox="0 0 1 1" markerWidth="1" markerHeight="1" overflow="visible" orient="auto">
   <!-- REF_ARROW_SPOT -->
   <g transform="scale(0.0092592592)">
    <path d="M -54, 0 C -54,29.807 -29.807,54 0,54 C 29.807,54 54,29.807 54,0 C 54,-29.807 29.807,-54 0,-54 C -29.807,-54 -54,-29.807 -54,0 z"/>
   </g>
  </marker>
  <marker id="DefaultArrow6" markerUnits="strokeWidth" viewBox="0 0 1 1" markerWidth="1" markerHeight="1" overflow="visible" orient="auto">
   <!-- REF_ARROW_DIAMOND -->
   <g transform="scale(0.0092592592)">
    <path d="M -63,0 L 0,63 L 63,0 L 0,-63 z"/>
   </g>
  </marker>
  <marker id="DefaultArrow7" markerUnits="strokeWidth" viewBox="0 0 1 1" markerWidth="1" markerHeight="1" overflow="visible" orient="auto">
   <!-- REF_ARROW_FEATHER -->
   <g transform="scale(0.0092592592)">
    <path d="M 18,-54 L 108,-54 L 63,0 L 108,54 L 18, 54 L -36,0 z"/>
   </g>
  </marker>
  <marker id="DefaultArrow8" markerUnits="strokeWidth" viewBox="0 0 1 1" markerWidth="1" markerHeight="1" overflow="visible" orient="auto">
   <!-- REF_ARROW_FEATHER2 -->
   <g transform="scale(0.0092592592)">
    <path d="M -36,0 L 18,-54 L 54,-54 L 18,-18 L 27,-18 L 63,-54 L 99,-54 L 63,-18 L 72,-18 L 108,-54 L 144,-54 L 90,0 L 144,54 L 108,54 L 72,18 L 63,18 L 99,54 L 63,54 L 27,18 L 18,18 L 54,54 L 18,54 z"/>
   </g>
  </marker>
  <marker id="DefaultArrow9" markerUnits="strokeWidth" viewBox="0 0 1 1" markerWidth="1" markerHeight="1" overflow="visible" orient="auto">
   <!-- REF_ARROW_HOLLOWDIAMOND -->
   <g transform="scale(0.0092592592)">
    <path d="M 0,45 L -45,0 L 0, -45 L 45, 0 z M 0, 63 L-63, 0 L 0, -63 L 63, 0 z"/>
   </g>
  </marker>
  <filter id="StainedFilter">
   <feBlend mode="multiply" in2="BackgroundImage" in="SourceGraphic" result="blend"/>
   <feComposite in="blend" in2="SourceAlpha" operator="in" result="comp"/>
  </filter>
  <filter id="BleachFilter">
   <feBlend mode="screen" in2="BackgroundImage" in="SourceGraphic" result="blend"/>
   <feComposite in="blend" in2="SourceAlpha" operator="in" result="comp"/>
  </filter>
  <filter id="InvertTransparencyBitmapFilter">
   <feComponentTransfer>
    <feFuncR type="gamma" amplitude="1.055" exponent=".416666666" offset="-0.055"/>
    <feFuncG type="gamma" amplitude="1.055" exponent=".416666666" offset="-0.055"/>
    <feFuncB type="gamma" amplitude="1.055" exponent=".416666666" offset="-0.055"/>
   </feComponentTransfer>
   <feComponentTransfer>
    <feFuncR type="linear" slope="-1" intercept="1"/>
    <feFuncG type="linear" slope="-1" intercept="1"/>
    <feFuncB type="linear" slope="-1" intercept="1"/>
    <feFuncA type="linear" slope="1" intercept="0"/>
   </feComponentTransfer>
   <feComponentTransfer>
    <feFuncR type="gamma" amplitude="1" exponent="2.4" offset="0"/>
    <feFuncG type="gamma" amplitude="1" exponent="2.4" offset="0"/>
    <feFuncB type="gamma" amplitude="1" exponent="2.4" offset="0"/>
   </feComponentTransfer>
  </filter>
 </defs>
 <g id="Document" fill="none" stroke="black" font-family="Times New Roman" font-size="16" transform="scale(1 -1)">
  <g id="Spread" transform="translate(0 -63.75)">
   <g id="Layer 1"/>
   <g id="Optional Content Layer from PDF"/>
   <g id="Optional Content Layer from PDF (2)">
    <g id="Group" stroke-linecap="round" stroke="none" fill="#ffffff">
     <g id="Group_1" fill-rule="nonzero" stroke-linejoin="round" stroke-width="1.862" stroke-miterlimit="79.8403193612775">
      <g id="Group_2">
       <path d="M 28.204,11.053 L 28.204,45.91 L 22.034,45.91 L 17.898,33.012 C 17.562,31.976 17.238,30.969 16.926,29.988 C 16.614,29.009 16.338,28.104 16.097,27.274 C 15.857,26.443 15.677,25.733 15.557,25.146 C 15.453,25.7 15.283,26.383 15.049,27.196 C 14.814,28.008 14.538,28.91 14.221,29.899 C 13.903,30.89 13.567,31.927 13.214,33.012 L 9.079,45.91 L 2.803,45.91 L 2.803,11.053 L 8.381,11.053 L 8.381,22.307 C 8.38,24.394 8.37,26.345 8.35,28.165 C 8.33,29.982 8.308,31.549 8.282,32.864 C 8.515,32.025 8.794,31.052 9.118,29.946 C 9.441,28.839 9.797,27.653 10.186,26.387 C 10.576,25.119 10.987,23.827 11.421,22.507 L 15.457,10.157 L 19.493,22.507 C 19.926,23.842 20.337,25.143 20.727,26.409 C 21.117,27.674 21.474,28.858 21.796,29.957 C 22.118,31.057 22.396,32.026 22.631,32.864 C 22.605,31.549 22.583,29.982 22.563,28.165 C 22.544,26.345 22.533,24.394 22.532,22.307 L 22.532,11.053 L 28.204,11.053 Z" marker-start="none" marker-end="none"/>
       <path d="M 53.015,11.045 L 53.015,17.023 L 40.911,17.023 L 40.911,26.69 L 48.731,26.69 L 48.731,32.568 L 40.911,32.568 L 40.911,39.931 L 52.567,39.931 L 52.567,45.908 L 34.688,45.908 L 34.688,11.045 L 53.015,11.045 Z" marker-start="none" marker-end="none"/>
       <path d="M 77.285,19.414 L 71.905,21.704 C 71.481,20.451 71.057,19.46 70.63,18.731 C 70.205,18.003 69.731,17.483 69.212,17.175 C 68.692,16.866 68.079,16.716 67.372,16.725 C 66.244,16.733 65.308,17.204 64.564,18.135 C 63.818,19.067 63.262,20.412 62.894,22.17 C 62.525,23.925 62.342,26.045 62.342,28.526 C 62.342,31.006 62.52,33.117 62.879,34.858 C 63.238,36.599 63.782,37.928 64.511,38.844 C 65.24,39.76 66.161,40.222 67.273,40.229 C 68.029,40.232 68.659,40.081 69.164,39.775 C 69.669,39.469 70.096,38.986 70.447,38.325 C 70.796,37.665 71.117,36.805 71.407,35.747 L 77.235,37.64 C 76.8,39.332 76.188,40.839 75.397,42.161 C 74.609,43.482 73.563,44.525 72.265,45.287 C 70.966,46.05 69.336,46.44 67.372,46.455 C 65.444,46.44 63.764,45.972 62.335,45.053 C 60.904,44.133 59.719,42.853 58.776,41.213 C 57.834,39.573 57.13,37.665 56.665,35.487 C 56.2,33.31 55.968,30.956 55.969,28.426 C 55.968,25.909 56.195,23.568 56.65,21.402 C 57.105,19.237 57.797,17.34 58.727,15.709 C 59.655,14.079 60.83,12.806 62.25,11.892 C 63.671,10.978 65.344,10.514 67.273,10.498 C 69.92,10.512 72.049,11.282 73.661,12.809 C 75.274,14.335 76.481,16.537 77.285,19.414 Z" marker-start="none" marker-end="none"/>
      </g>
     </g>
     <g id="Group_3" fill-rule="nonzero" stroke-linejoin="round" stroke-width="0.679" stroke-miterlimit="79.8403193612775">
      <g id="Group_4">
       <path d="M 98.074,33.022 C 97.873,32.925 97.639,32.84 97.372,32.767 C 97.105,32.695 96.82,32.638 96.515,32.597 C 96.211,32.557 95.901,32.536 95.586,32.535 C 94.633,32.537 93.812,32.743 93.124,33.151 C 92.436,33.559 91.907,34.157 91.535,34.942 C 91.164,35.726 90.976,36.685 90.971,37.817 C 90.975,38.714 91.092,39.499 91.323,40.172 C 91.553,40.846 91.879,41.407 92.297,41.857 C 92.715,42.306 93.205,42.644 93.77,42.869 C 94.334,43.094 94.951,43.206 95.622,43.207 C 96.135,43.202 96.595,43.152 96.998,43.055 C 97.402,42.959 97.748,42.841 98.037,42.702 L 98.488,44.413 C 98.361,44.482 98.169,44.558 97.911,44.641 C 97.652,44.724 97.326,44.796 96.933,44.858 C 96.539,44.918 96.078,44.95 95.55,44.953 C 94.589,44.952 93.699,44.795 92.879,44.48 C 92.059,44.166 91.342,43.702 90.728,43.088 C 90.114,42.474 89.637,41.718 89.295,40.818 C 88.952,39.917 88.777,38.882 88.773,37.709 C 88.776,36.607 88.93,35.627 89.235,34.769 C 89.54,33.911 89.976,33.185 90.541,32.59 C 91.107,31.996 91.782,31.545 92.567,31.236 C 93.352,30.927 94.226,30.773 95.19,30.771 C 95.942,30.777 96.599,30.837 97.157,30.951 C 97.714,31.065 98.139,31.198 98.434,31.347 L 98.074,33.022 Z" marker-start="none" marker-end="none"/>
       <path d="M 107.351,37.079 C 107.354,37.611 107.297,38.118 107.179,38.6 C 107.061,39.082 106.861,39.511 106.58,39.889 C 106.299,40.266 105.918,40.563 105.435,40.781 C 104.952,41 104.347,41.111 103.62,41.116 C 102.946,41.11 102.332,41.027 101.778,40.87 C 101.224,40.714 100.769,40.519 100.41,40.287 L 100.843,38.9 C 101.164,39.11 101.536,39.276 101.956,39.398 C 102.377,39.52 102.811,39.583 103.259,39.585 C 103.754,39.58 104.139,39.499 104.416,39.342 C 104.692,39.187 104.89,38.99 105.01,38.753 C 105.129,38.516 105.203,38.274 105.229,38.026 C 105.255,37.777 105.266,37.557 105.261,37.366 C 104.119,37.367 103.134,37.23 102.306,36.958 C 101.478,36.686 100.84,36.276 100.39,35.728 C 99.941,35.181 99.714,34.496 99.708,33.672 C 99.709,33.286 99.773,32.92 99.903,32.573 C 100.033,32.226 100.222,31.917 100.471,31.647 C 100.721,31.377 101.027,31.165 101.388,31.008 C 101.75,30.853 102.163,30.774 102.628,30.771 C 103.044,30.774 103.427,30.833 103.776,30.949 C 104.127,31.065 104.438,31.226 104.713,31.427 C 104.987,31.63 105.217,31.862 105.405,32.122 L 105.459,32.122 L 105.602,30.969 L 107.495,30.969 C 107.434,31.298 107.395,31.667 107.376,32.075 C 107.357,32.483 107.35,32.901 107.351,33.33 L 107.351,37.079 Z M 105.315,34.322 C 105.31,33.934 105.214,33.588 105.029,33.285 C 104.844,32.982 104.595,32.744 104.283,32.569 C 103.971,32.394 103.624,32.306 103.241,32.302 C 102.979,32.301 102.738,32.357 102.518,32.469 C 102.297,32.581 102.121,32.754 101.987,32.988 C 101.853,33.223 101.784,33.523 101.78,33.89 C 101.786,34.328 101.893,34.685 102.102,34.959 C 102.31,35.233 102.587,35.444 102.932,35.589 C 103.276,35.735 103.657,35.835 104.07,35.888 C 104.484,35.942 104.899,35.967 105.315,35.964 L 105.315,34.322 Z" marker-start="none" marker-end="none"/>
       <path d="M 114.98,41.061 C 114.892,41.08 114.807,41.093 114.725,41.102 C 114.644,41.111 114.554,41.115 114.458,41.115 C 114.093,41.113 113.743,41.031 113.408,40.868 C 113.073,40.704 112.773,40.471 112.508,40.167 C 112.242,39.863 112.033,39.501 111.879,39.079 L 111.808,39.079 L 111.736,40.899 L 109.916,40.899 C 109.943,40.443 109.961,39.968 109.972,39.472 C 109.984,38.978 109.988,38.445 109.988,37.871 L 109.988,30.968 L 112.078,30.968 L 112.078,36.231 C 112.08,36.811 112.174,37.316 112.359,37.748 C 112.543,38.178 112.807,38.513 113.149,38.751 C 113.49,38.99 113.896,39.111 114.367,39.114 C 114.484,39.114 114.593,39.111 114.694,39.101 C 114.794,39.092 114.89,39.079 114.98,39.06 L 114.98,41.061 Z" marker-start="none" marker-end="none"/>
       <path d="M 123.53,32.845 C 123.21,32.707 122.849,32.595 122.446,32.509 C 122.042,32.423 121.568,32.379 121.024,32.376 C 120.494,32.373 120.006,32.474 119.559,32.678 C 119.112,32.884 118.749,33.213 118.47,33.666 C 118.191,34.118 118.04,34.716 118.014,35.457 L 124.323,35.457 C 124.341,35.584 124.354,35.719 124.364,35.865 C 124.372,36.011 124.377,36.169 124.377,36.34 C 124.378,36.959 124.306,37.553 124.158,38.12 C 124.011,38.689 123.782,39.197 123.469,39.647 C 123.156,40.097 122.752,40.452 122.255,40.715 C 121.759,40.976 121.162,41.11 120.465,41.116 C 119.761,41.111 119.133,40.973 118.581,40.701 C 118.029,40.429 117.561,40.051 117.176,39.566 C 116.791,39.082 116.499,38.519 116.298,37.877 C 116.097,37.236 115.997,36.543 115.995,35.8 C 115.998,34.785 116.185,33.902 116.555,33.15 C 116.925,32.399 117.461,31.817 118.163,31.402 C 118.866,30.988 119.717,30.778 120.717,30.772 C 121.397,30.776 122.004,30.835 122.538,30.948 C 123.073,31.06 123.517,31.199 123.872,31.366 L 123.53,32.845 Z M 118.032,36.953 C 118.059,37.247 118.121,37.548 118.22,37.857 C 118.319,38.166 118.46,38.453 118.643,38.72 C 118.825,38.985 119.055,39.201 119.332,39.365 C 119.609,39.53 119.939,39.615 120.321,39.62 C 120.721,39.615 121.055,39.532 121.324,39.371 C 121.594,39.209 121.807,38.997 121.966,38.733 C 122.123,38.469 122.236,38.182 122.303,37.871 C 122.37,37.561 122.399,37.255 122.394,36.953 L 118.032,36.953 Z" marker-start="none" marker-end="none"/>
       <path d="M 133.316,32.845 C 132.997,32.707 132.636,32.595 132.232,32.509 C 131.829,32.423 131.355,32.379 130.811,32.376 C 130.281,32.373 129.792,32.474 129.345,32.678 C 128.898,32.884 128.535,33.213 128.257,33.666 C 127.978,34.118 127.826,34.716 127.801,35.457 L 134.11,35.457 C 134.127,35.584 134.141,35.719 134.15,35.865 C 134.159,36.011 134.164,36.169 134.164,36.34 C 134.165,36.959 134.092,37.553 133.945,38.12 C 133.798,38.689 133.568,39.197 133.255,39.647 C 132.943,40.097 132.538,40.452 132.041,40.715 C 131.545,40.976 130.949,41.11 130.252,41.116 C 129.548,41.111 128.92,40.973 128.368,40.701 C 127.815,40.429 127.347,40.051 126.962,39.566 C 126.578,39.082 126.286,38.519 126.085,37.877 C 125.884,37.236 125.784,36.543 125.782,35.8 C 125.785,34.785 125.972,33.902 126.341,33.15 C 126.711,32.399 127.248,31.817 127.95,31.402 C 128.652,30.988 129.504,30.778 130.504,30.772 C 131.183,30.776 131.79,30.835 132.325,30.948 C 132.86,31.06 133.304,31.199 133.659,31.366 L 133.316,32.845 Z M 127.818,36.953 C 127.845,37.247 127.907,37.548 128.007,37.857 C 128.106,38.166 128.247,38.453 128.429,38.72 C 128.612,38.985 128.841,39.201 129.118,39.365 C 129.396,39.53 129.726,39.615 130.108,39.62 C 130.507,39.615 130.841,39.532 131.111,39.371 C 131.38,39.209 131.593,38.997 131.753,38.733 C 131.91,38.469 132.023,38.182 132.089,37.871 C 132.156,37.561 132.186,37.255 132.18,36.953 L 127.818,36.953 Z" marker-start="none" marker-end="none"/>
       <path d="M 141.171,41.061 C 141.084,41.08 140.999,41.093 140.917,41.102 C 140.835,41.111 140.746,41.115 140.649,41.115 C 140.284,41.113 139.935,41.031 139.6,40.868 C 139.265,40.704 138.965,40.471 138.699,40.167 C 138.434,39.863 138.225,39.501 138.071,39.079 L 138,39.079 L 137.927,40.899 L 136.108,40.899 C 136.135,40.443 136.153,39.968 136.164,39.472 C 136.175,38.978 136.18,38.445 136.18,37.871 L 136.18,30.968 L 138.27,30.968 L 138.27,36.231 C 138.272,36.811 138.365,37.316 138.551,37.748 C 138.735,38.178 138.999,38.513 139.34,38.751 C 139.682,38.99 140.087,39.111 140.558,39.114 C 140.675,39.114 140.784,39.111 140.886,39.101 C 140.986,39.092 141.082,39.079 141.171,39.06 L 141.171,41.061 Z" marker-start="none" marker-end="none"/>
       <path d="M 148.206,40.54 C 147.932,40.697 147.592,40.833 147.188,40.943 C 146.783,41.054 146.335,41.11 145.845,41.116 C 145.144,41.11 144.537,40.976 144.024,40.714 C 143.51,40.451 143.112,40.097 142.831,39.651 C 142.549,39.204 142.407,38.701 142.403,38.142 C 142.398,37.563 142.601,37.032 143.011,36.55 C 143.421,36.067 144.065,35.648 144.944,35.294 C 145.338,35.128 145.653,34.965 145.888,34.804 C 146.124,34.641 146.293,34.466 146.396,34.277 C 146.499,34.086 146.55,33.867 146.548,33.617 C 146.549,33.232 146.412,32.921 146.138,32.685 C 145.863,32.448 145.448,32.326 144.89,32.319 C 144.605,32.322 144.32,32.357 144.037,32.424 C 143.753,32.492 143.489,32.576 143.244,32.677 C 142.999,32.779 142.79,32.882 142.619,32.986 L 142.15,31.437 C 142.49,31.236 142.892,31.075 143.361,30.955 C 143.828,30.836 144.326,30.774 144.854,30.771 C 145.61,30.773 146.264,30.894 146.818,31.136 C 147.372,31.377 147.801,31.724 148.105,32.177 C 148.409,32.631 148.562,33.176 148.567,33.816 C 148.564,34.53 148.352,35.129 147.929,35.612 C 147.505,36.094 146.883,36.5 146.061,36.827 C 145.661,36.998 145.338,37.158 145.095,37.308 C 144.852,37.459 144.674,37.618 144.565,37.787 C 144.455,37.955 144.402,38.152 144.404,38.377 C 144.404,38.602 144.459,38.806 144.569,38.987 C 144.679,39.168 144.841,39.312 145.055,39.42 C 145.269,39.528 145.532,39.583 145.845,39.585 C 146.116,39.583 146.371,39.554 146.608,39.497 C 146.845,39.44 147.059,39.368 147.25,39.283 C 147.443,39.198 147.605,39.112 147.738,39.027 L 148.206,40.54 Z" marker-start="none" marker-end="none"/>
      </g>
      <g id="Group_5">
       <path d="M 98.074,13.871 C 97.873,13.774 97.639,13.689 97.372,13.616 C 97.105,13.543 96.82,13.486 96.515,13.446 C 96.211,13.405 95.901,13.385 95.586,13.384 C 94.633,13.386 93.812,13.592 93.124,14 C 92.436,14.408 91.907,15.006 91.535,15.79 C 91.164,16.575 90.976,17.534 90.971,18.666 C 90.975,19.563 91.092,20.347 91.323,21.021 C 91.553,21.695 91.879,22.256 92.297,22.705 C 92.715,23.155 93.205,23.493 93.77,23.718 C 94.334,23.943 94.951,24.055 95.622,24.056 C 96.135,24.051 96.595,24.001 96.998,23.904 C 97.402,23.808 97.748,23.69 98.037,23.551 L 98.488,25.261 C 98.361,25.331 98.169,25.407 97.911,25.49 C 97.652,25.573 97.326,25.645 96.933,25.706 C 96.539,25.767 96.078,25.799 95.55,25.802 C 94.589,25.801 93.699,25.644 92.879,25.329 C 92.059,25.015 91.342,24.551 90.728,23.937 C 90.114,23.323 89.637,22.566 89.295,21.667 C 88.952,20.766 88.777,19.731 88.773,18.558 C 88.776,17.455 88.93,16.476 89.235,15.618 C 89.54,14.76 89.976,14.034 90.541,13.439 C 91.107,12.845 91.782,12.394 92.567,12.085 C 93.352,11.776 94.226,11.622 95.19,11.62 C 95.942,11.625 96.599,11.685 97.157,11.8 C 97.714,11.914 98.139,12.046 98.434,12.196 L 98.074,13.871 Z" marker-start="none" marker-end="none"/>
       <path d="M 107.318,13.694 C 106.998,13.556 106.637,13.444 106.234,13.358 C 105.83,13.272 105.356,13.228 104.812,13.225 C 104.282,13.222 103.794,13.322 103.347,13.527 C 102.9,13.733 102.537,14.062 102.258,14.514 C 101.979,14.967 101.827,15.565 101.802,16.306 L 108.111,16.306 C 108.128,16.432 108.142,16.567 108.152,16.714 C 108.16,16.86 108.165,17.018 108.165,17.189 C 108.166,17.808 108.094,18.401 107.946,18.969 C 107.799,19.537 107.57,20.046 107.257,20.496 C 106.944,20.946 106.54,21.301 106.043,21.564 C 105.546,21.825 104.95,21.959 104.253,21.965 C 103.549,21.96 102.921,21.822 102.369,21.55 C 101.817,21.278 101.349,20.899 100.964,20.415 C 100.579,19.93 100.287,19.368 100.086,18.726 C 99.885,18.085 99.785,17.392 99.783,16.649 C 99.786,15.634 99.973,14.751 100.343,13.999 C 100.713,13.248 101.249,12.666 101.951,12.251 C 102.654,11.837 103.505,11.626 104.505,11.621 C 105.185,11.624 105.792,11.683 106.326,11.796 C 106.861,11.908 107.305,12.048 107.66,12.215 L 107.318,13.694 Z M 101.82,17.802 C 101.847,18.095 101.909,18.397 102.008,18.705 C 102.107,19.014 102.248,19.302 102.431,19.568 C 102.613,19.834 102.843,20.05 103.12,20.214 C 103.397,20.379 103.727,20.464 104.109,20.469 C 104.509,20.464 104.843,20.381 105.112,20.22 C 105.381,20.058 105.595,19.845 105.754,19.582 C 105.911,19.317 106.024,19.031 106.091,18.72 C 106.157,18.41 106.187,18.104 106.182,17.802 L 101.82,17.802 Z" marker-start="none" marker-end="none"/>
       <path d="M 118.383,17.893 C 118.378,18.655 118.28,19.298 118.089,19.821 C 117.898,20.344 117.643,20.762 117.324,21.077 C 117.007,21.393 116.654,21.62 116.269,21.759 C 115.884,21.899 115.495,21.967 115.103,21.965 C 114.603,21.959 114.155,21.876 113.761,21.714 C 113.366,21.552 113.028,21.343 112.747,21.087 C 112.466,20.831 112.248,20.559 112.091,20.272 L 112.037,20.272 L 111.929,21.749 L 110.109,21.749 C 110.128,21.331 110.145,20.897 110.158,20.447 C 110.173,19.998 110.181,19.501 110.182,18.956 L 110.182,11.819 L 112.271,11.819 L 112.271,17.803 C 112.278,18.332 112.386,18.777 112.594,19.139 C 112.802,19.5 113.068,19.773 113.391,19.957 C 113.713,20.143 114.049,20.235 114.4,20.236 C 114.872,20.23 115.246,20.11 115.524,19.875 C 115.801,19.641 116,19.329 116.119,18.938 C 116.238,18.547 116.296,18.115 116.293,17.641 L 116.293,11.819 L 118.383,11.819 L 118.383,17.893 Z" marker-start="none" marker-end="none"/>
       <path d="M 121.428,21.749 L 120.023,21.749 L 120.023,20.183 L 121.428,20.183 L 121.428,15.044 C 121.427,14.399 121.487,13.859 121.609,13.426 C 121.73,12.992 121.916,12.643 122.168,12.376 C 122.387,12.132 122.664,11.945 123.001,11.816 C 123.337,11.686 123.714,11.621 124.131,11.62 C 124.484,11.621 124.797,11.642 125.071,11.682 C 125.345,11.724 125.572,11.781 125.754,11.854 L 125.681,13.457 C 125.559,13.421 125.426,13.39 125.283,13.367 C 125.14,13.344 124.966,13.332 124.762,13.331 C 124.323,13.33 124.003,13.481 123.8,13.782 C 123.598,14.083 123.498,14.54 123.501,15.152 L 123.501,20.183 L 125.862,20.183 L 125.862,21.749 L 123.501,21.749 L 123.501,24.201 L 121.428,23.552 L 121.428,21.749 Z" marker-start="none" marker-end="none"/>
       <path d="M 134.591,13.694 C 134.272,13.556 133.911,13.444 133.507,13.358 C 133.104,13.272 132.63,13.228 132.086,13.225 C 131.556,13.222 131.067,13.322 130.62,13.527 C 130.173,13.733 129.811,14.062 129.532,14.514 C 129.253,14.967 129.101,15.565 129.076,16.306 L 135.385,16.306 C 135.402,16.432 135.416,16.567 135.425,16.714 C 135.434,16.86 135.439,17.018 135.439,17.189 C 135.44,17.808 135.367,18.401 135.22,18.969 C 135.073,19.537 134.843,20.046 134.531,20.496 C 134.218,20.946 133.813,21.301 133.316,21.564 C 132.82,21.825 132.224,21.959 131.527,21.965 C 130.823,21.96 130.195,21.822 129.643,21.55 C 129.09,21.278 128.622,20.899 128.237,20.415 C 127.853,19.93 127.561,19.368 127.36,18.726 C 127.159,18.085 127.059,17.392 127.057,16.649 C 127.06,15.634 127.247,14.751 127.617,13.999 C 127.986,13.248 128.523,12.666 129.225,12.251 C 129.927,11.837 130.779,11.626 131.779,11.621 C 132.458,11.624 133.065,11.683 133.6,11.796 C 134.135,11.908 134.579,12.048 134.934,12.215 L 134.591,13.694 Z M 129.093,17.802 C 129.12,18.095 129.182,18.397 129.282,18.705 C 129.381,19.014 129.522,19.302 129.704,19.568 C 129.887,19.834 130.117,20.05 130.394,20.214 C 130.671,20.379 131.001,20.464 131.383,20.469 C 131.783,20.464 132.116,20.381 132.386,20.22 C 132.655,20.058 132.868,19.845 133.028,19.582 C 133.185,19.317 133.298,19.031 133.365,18.72 C 133.431,18.41 133.461,18.104 133.455,17.802 L 129.093,17.802 Z" marker-start="none" marker-end="none"/>
       <path d="M 142.446,21.91 C 142.359,21.928 142.274,21.942 142.192,21.951 C 142.111,21.96 142.021,21.964 141.924,21.964 C 141.559,21.962 141.21,21.88 140.875,21.717 C 140.54,21.553 140.24,21.319 139.974,21.016 C 139.709,20.712 139.5,20.35 139.346,19.927 L 139.275,19.927 L 139.202,21.748 L 137.383,21.748 C 137.41,21.291 137.428,20.816 137.439,20.321 C 137.45,19.827 137.455,19.293 137.455,18.72 L 137.455,11.817 L 139.545,11.817 L 139.545,17.08 C 139.547,17.66 139.641,18.165 139.826,18.596 C 140.01,19.027 140.274,19.362 140.615,19.6 C 140.957,19.839 141.362,19.96 141.834,19.963 C 141.95,19.963 142.059,19.959 142.161,19.95 C 142.261,19.941 142.357,19.927 142.446,19.909 L 142.446,21.91 Z" marker-start="none" marker-end="none"/>
      </g>
     </g>
     <path d="M 80.288,45.709 L 80.288,10.877 L 81.825,10.877 L 81.825,45.709 L 80.288,45.709 Z" stroke-width="1.023" stroke-linejoin="miter" marker-start="none" marker-end="none" stroke-miterlimit="79.8403193612775"/>
    </g>
   </g>
  </g>
 </g>
</svg>
